<svg width="28" height="28" viewBox="0 0 28 28" fill="none" xmlns="http://www.w3.org/2000/svg">
<path d="M4.46387 16.9854C4.46387 20.0879 6.4502 22.6279 8.99902 22.6279H11.8906C13.0771 23.2344 14.4834 23.5859 16.0303 23.5859H17.2607C18.4033 23.5859 19.3789 23.5156 20.0117 23.3574C21.3037 23.0322 22.1211 22.1182 22.1211 20.9668C22.1211 20.7559 22.0947 20.5713 22.0332 20.3779C22.6396 19.9121 22.9824 19.2178 22.9824 18.4619C22.9824 18.1104 22.9121 17.7676 22.7891 17.4775C23.1934 17.0469 23.4307 16.4316 23.4307 15.79C23.4307 15.3594 23.3252 14.9375 23.1494 14.6035C23.3955 14.2256 23.5361 13.7246 23.5361 13.1797C23.5361 11.7734 22.4639 10.6924 21.0752 10.6924H17.8057C17.6211 10.6924 17.498 10.6045 17.5068 10.4375C17.5508 9.52344 18.9746 7.35254 18.9746 5.56836C18.9746 4.25879 18.0518 3.30078 16.7773 3.30078C15.8545 3.30078 15.2217 3.78418 14.6152 4.93555C13.5254 7.04492 12.1982 8.89062 10.2383 11.2988H8.66504C6.27441 11.2988 4.46387 13.8301 4.46387 16.9854ZM9.93945 16.915C9.93945 15.0518 10.3525 13.8564 11.5479 12.2656C12.875 10.4814 14.7207 8.3457 16.0479 5.69141C16.3291 5.1377 16.5225 4.99707 16.8037 4.99707C17.1377 4.99707 17.3574 5.24316 17.3574 5.66504C17.3574 6.96582 15.8633 9.14551 15.8633 10.5693C15.8633 11.6328 16.7158 12.3096 17.876 12.3096H21.0312C21.541 12.3096 21.9189 12.6963 21.9189 13.2061C21.9189 13.5664 21.8047 13.8037 21.4971 14.1025C21.2686 14.3311 21.2334 14.665 21.4355 14.9023C21.6904 15.2539 21.7959 15.4912 21.7959 15.79C21.7959 16.1504 21.6289 16.458 21.2773 16.7129C20.9785 16.9326 20.873 17.2842 21.0488 17.6357C21.2334 17.9961 21.3301 18.1719 21.3301 18.4531C21.3301 18.875 21.0576 19.1914 20.5127 19.4814C20.2227 19.6396 20.1436 19.9561 20.2666 20.2285C20.4512 20.6768 20.4775 20.7646 20.4688 20.958C20.4688 21.3359 20.1963 21.6348 19.6074 21.7842C19.0889 21.9072 18.2627 21.9688 17.1729 21.96L16.0391 21.9512C12.4004 21.916 9.93945 19.8682 9.93945 16.915ZM6.06348 16.9854C6.06348 14.7529 7.20605 12.9688 8.52441 12.9072C8.75293 12.9072 8.98145 12.9072 9.20996 12.9072C8.58594 14.1201 8.31348 15.3945 8.31348 16.915C8.31348 18.5322 8.87598 19.9561 9.9043 21.0635C9.5791 21.0635 9.23633 21.0635 8.90234 21.0635C7.36426 21.002 6.06348 19.1914 6.06348 16.9854Z" fill="#1C1C1E"/>
</svg>
