<svg width="28" height="28" viewBox="0 0 28 28" fill="none" xmlns="http://www.w3.org/2000/svg">
<path d="M7.00391 7.05371V20.2637C7.00391 22.0215 7.91797 22.9443 9.6582 22.9443H18.3418C20.082 22.9443 20.9961 22.0215 20.9961 20.2637V7.05371C20.9961 5.28711 20.0908 4.37305 18.3418 4.37305H9.6582C7.91797 4.37305 7.00391 5.28711 7.00391 7.05371ZM8.75293 7.15918C8.75293 6.47363 9.10449 6.12207 9.79883 6.12207H18.2012C18.9043 6.12207 19.2471 6.47363 19.2471 7.15918V20.1494C19.2471 20.835 18.8955 21.1865 18.2012 21.1865H9.79883C9.10449 21.1865 8.75293 20.835 8.75293 20.1494V7.15918ZM14 11.4922C15.125 11.4922 16.0479 10.5869 16.0391 9.46191C16.0215 8.32812 15.125 7.44043 14 7.43164C12.875 7.42285 11.9697 8.32812 11.9697 9.46191C11.9697 10.5957 12.875 11.4922 14 11.4922ZM14 10.3936C13.4814 10.3936 13.0684 9.97168 13.0684 9.46191C13.0684 8.91699 13.4814 8.52148 14 8.52148C14.5098 8.52148 14.9316 8.94336 14.9316 9.46191C14.9316 9.97168 14.5186 10.3936 14 10.3936ZM14 19.8682C15.9688 19.8682 17.5508 18.2949 17.5508 16.3174C17.5508 14.3398 15.9688 12.7842 14 12.7754C12.04 12.7666 10.458 14.3398 10.458 16.3174C10.458 18.2949 12.04 19.8682 14 19.8682ZM14 17.7324C13.2266 17.7324 12.5938 17.0996 12.5938 16.3174C12.5938 15.5088 13.209 14.9023 14 14.9023C14.791 14.9023 15.415 15.5088 15.415 16.3174C15.415 17.0996 14.791 17.7324 14 17.7324Z" fill="#1C1C1E"/>
</svg>
