<svg width="28" height="28" viewBox="0 0 28 28" fill="none" xmlns="http://www.w3.org/2000/svg">
<path d="M7.65429 15.6055L22.7451 11.5801C24.4941 11.1142 25.7598 9.82225 25.2939 8.53905C24.8545 7.37889 23.1318 7.0537 21.5674 7.58983L16.2588 9.40038C15.8984 9.52342 15.6435 9.51464 15.2217 9.31249L7.87401 5.8496C7.61913 5.72655 7.33788 5.70897 7.083 5.77928L6.47655 5.97264C6.22167 6.05175 6.14257 6.35057 6.3623 6.58788L10.7744 11.2812L7.97069 12.2392L3.76952 10.7451C3.49706 10.6572 3.26855 10.7012 3.02245 10.9297L2.75878 11.167C2.55663 11.3515 2.54784 11.5976 2.72362 11.7822L5.7998 15.2451C6.23046 15.7197 6.86327 15.8164 7.65429 15.6055ZM4.36718 21.6699H23.4131C23.8877 21.6699 24.2744 21.2832 24.2744 20.8086C24.2744 20.334 23.8877 19.9473 23.4131 19.9473H4.36718C3.90136 19.9473 3.50585 20.334 3.50585 20.8086C3.50585 21.2832 3.90136 21.6699 4.36718 21.6699Z" fill="#1C1C1E"/>
</svg>
