<svg width="28" height="28" viewBox="0 0 28 28" fill="none" xmlns="http://www.w3.org/2000/svg">
<path d="M13.9912 22.7422C18.9746 22.7422 23.0879 18.6289 23.0879 13.6543C23.0879 8.67969 18.9658 4.56641 13.9824 4.56641C9.00781 4.56641 4.90332 8.67969 4.90332 13.6543C4.90332 18.6289 9.0166 22.7422 13.9912 22.7422ZM13.9912 20.9316C9.95703 20.9316 6.73145 17.6885 6.73145 13.6543C6.73145 9.62012 9.95703 6.38574 13.9824 6.38574C18.0166 6.38574 21.2598 9.62012 21.2686 13.6543C21.2773 17.6885 18.0254 20.9316 13.9912 20.9316ZM12.207 17.3457C12.585 17.3457 12.7959 17.082 12.7959 16.7217V15.79H13.2002C13.5254 15.79 13.7275 15.5967 13.7275 15.2627C13.7275 14.9199 13.5254 14.7178 13.2002 14.7178H12.7959V10.8945C12.7959 10.332 12.4268 9.96289 11.8379 9.96289C11.2842 9.96289 10.9414 10.1826 10.6514 10.71C9.99219 11.835 9.20117 13.25 8.68262 14.208C8.55078 14.498 8.48047 14.7178 8.48047 14.9902C8.48047 15.5 8.79688 15.7988 9.29785 15.7988H11.6357V16.7217C11.6357 17.0732 11.8379 17.3457 12.207 17.3457ZM16.7861 17.3545C18.3154 17.3545 19.3174 16.4141 19.3174 14.8848C19.3174 13.5488 18.4209 12.626 17.1553 12.626C16.584 12.626 15.9951 12.8984 15.7402 13.2939H15.7051L15.8545 11.2197H18.5439C18.8428 11.2197 19.0449 11 19.0449 10.6748C19.0449 10.3496 18.8516 10.1387 18.5439 10.1387H15.6523C15.1689 10.1387 14.8701 10.4375 14.835 10.9297L14.6416 13.5488C14.6152 14.0234 14.8789 14.3311 15.3008 14.3311C15.5908 14.3311 15.7666 14.252 16.0215 14.0498C16.3555 13.7598 16.6104 13.6455 16.9619 13.6455C17.6562 13.6455 18.1309 14.1992 18.1309 14.9199C18.1309 15.7461 17.6123 16.2559 16.8477 16.2559C16.3027 16.2559 15.8545 15.9658 15.6172 15.5088C15.4854 15.2803 15.3184 15.1396 15.0811 15.1396C14.7646 15.1396 14.5449 15.377 14.5449 15.6934C14.5449 15.8428 14.5713 15.9746 14.624 16.1064C14.8789 16.7744 15.7051 17.3545 16.7861 17.3545ZM11.6357 14.7178H9.72852V14.6826C10.1768 13.7773 10.9854 12.3184 11.5918 11.2373H11.6357V14.7178Z" fill="#1C1C1E"/>
</svg>
