<svg width="28" height="28" viewBox="0 0 28 28" fill="none" xmlns="http://www.w3.org/2000/svg">
<path d="M6.13381 21.4765C8.0674 23.4101 10.8535 23.3574 12.9278 21.2832L15.5908 18.6113L18.9922 15.2011L21.6641 12.5468C23.7383 10.4726 23.7822 7.68648 21.8574 5.75289C19.9326 3.82808 17.1465 3.88082 15.0723 5.94625L12.4092 8.61812L9.00783 12.0283L6.33596 14.6826C4.26174 16.7656 4.21779 19.5517 6.13381 21.4765ZM19.001 11.8789L15.7403 8.61812C15.5733 8.45113 15.4063 8.31051 15.2393 8.18746L16.2588 7.16793C17.6211 5.80562 19.4229 5.5859 20.7324 6.88668C22.042 8.18746 21.8135 9.98922 20.4424 11.3515L19.4229 12.3711C19.3086 12.2128 19.168 12.0459 19.001 11.8789ZM14.7119 9.83101L17.7881 12.9072C18.21 13.3291 18.1748 13.6367 17.7266 14.0761L14.4571 17.3457C14.0176 17.7851 13.71 17.8291 13.2881 17.4072L10.2119 14.3222C9.79006 13.9003 9.834 13.5927 10.2735 13.1533L13.543 9.89254C13.9824 9.45308 14.2901 9.40914 14.7119 9.83101ZM13.9912 12.6259C14.4131 12.6259 14.7207 12.292 14.7295 11.8964C14.7383 11.5009 14.4043 11.167 14 11.167C13.5957 11.167 13.2793 11.5009 13.2793 11.9052C13.2793 12.2744 13.6045 12.6259 13.9912 12.6259ZM15.7051 14.331C16.1094 14.331 16.4346 14.0058 16.4258 13.6015C16.4258 13.2148 16.1182 12.8808 15.6963 12.8808C15.3096 12.8808 14.9844 13.2236 14.9844 13.5927C14.9844 14.0058 15.3008 14.331 15.7051 14.331ZM12.1895 14.2255C12.5147 14.2871 12.8311 14.0586 12.9014 13.7509C12.9629 13.4082 12.7432 13.0654 12.418 13.0039C12.0752 12.9423 11.75 13.1621 11.6885 13.4961C11.6182 13.8212 11.8291 14.1552 12.1895 14.2255ZM13.877 15.9306C14.211 16.0009 14.5362 15.7812 14.6065 15.4296C14.668 15.122 14.4483 14.788 14.1231 14.7177C13.7715 14.6562 13.4551 14.8671 13.3848 15.2011C13.3145 15.5351 13.5342 15.8691 13.877 15.9306ZM7.2676 20.3515C5.95803 19.0507 6.18654 17.2402 7.55764 15.8779L8.56838 14.8584C8.69143 15.0253 8.83205 15.1836 8.99904 15.3505L12.2598 18.6201C12.4268 18.7871 12.5938 18.9277 12.7608 19.042L11.7412 20.0615C10.3789 21.4238 8.57717 21.6523 7.2676 20.3515Z" fill="#1C1C1E"/>
</svg>
