<svg width="28" height="28" viewBox="0 0 28 28" fill="none" xmlns="http://www.w3.org/2000/svg">
<path d="M3.3418 23.0215C3.87305 23.0215 4.24658 22.4902 4.24658 21.3447C4.24658 20.9048 4.19678 20.5063 4.11377 20.1328C2.56982 19.8506 1.39941 18.4976 1.39941 16.8623C1.39941 16.2148 1.59033 15.6089 1.91406 15.1025C1.81445 14.646 1.77295 14.3306 1.77295 13.9072C1.77295 9.50781 5.39209 5.82227 8.6958 5.82227C10.6631 5.82227 11.6758 7.36621 11.4019 9.97266L10.9536 14.3804H4.72803C3.3584 14.3804 2.24609 15.4927 2.24609 16.8706C2.24609 18.2402 3.3584 19.3525 4.72803 19.3525H10.439L10.2729 20.9463C10.2397 21.2534 10.3477 21.4858 10.522 21.6187L10.2896 23.9346H11.2856L11.5098 21.6851C11.7256 21.5688 11.8916 21.3613 11.9248 21.0708L12.0991 19.3525H12.3564C12.7798 19.3525 13.1118 19.0703 13.1533 18.6304L13.4771 15.3018C13.5269 14.7705 13.1616 14.3804 12.6304 14.3804H12.5972L13.0537 9.90625C13.4189 6.2041 11.8584 4.12061 8.78711 4.12061C4.22168 4.12061 0.0629883 8.2793 0.0629883 13.9819C0.0629883 17.8252 1.2915 22.98 3.3418 23.0215ZM17.7104 23.9346L17.478 21.6187C17.6523 21.4858 17.7603 21.2534 17.7271 20.9463L17.561 19.3525H23.2637C24.6416 19.3525 25.7456 18.2402 25.7456 16.8706C25.7456 15.4927 24.6416 14.3804 23.2637 14.3804H17.0464L16.5898 9.97266C16.3242 7.36621 17.3286 5.82227 19.3042 5.82227C22.6079 5.82227 26.2271 9.50781 26.2271 13.9072C26.2271 14.3306 26.1855 14.646 26.0776 15.1025C26.4014 15.6089 26.6006 16.2148 26.6006 16.8623C26.6006 18.4976 25.4219 19.8506 23.8862 20.1328C23.8032 20.5063 23.7534 20.9048 23.7534 21.3447C23.7534 22.4902 24.127 23.0215 24.6582 23.0215C26.7085 22.98 27.937 17.8252 27.937 13.9819C27.937 8.2793 23.7783 4.12061 19.2046 4.12061C16.1416 4.12061 14.5728 6.2041 14.9463 9.90625L15.4028 14.3804H15.3696C14.8384 14.3804 14.4731 14.7705 14.5229 15.3018L14.8467 18.6304C14.8882 19.0703 15.2119 19.3525 15.6436 19.3525H15.9009L16.0752 21.0708C16.1084 21.3613 16.2661 21.5688 16.4819 21.6851L16.7144 23.9346H17.7104ZM4.72803 18.4893C3.83984 18.4893 3.10938 17.7588 3.10938 16.8623C3.10938 15.9741 3.83984 15.2437 4.72803 15.2437C5.62451 15.2437 6.35498 15.9741 6.35498 16.8623C6.35498 17.7588 5.62451 18.4893 4.72803 18.4893ZM23.2637 18.4893C22.3672 18.4893 21.645 17.7588 21.645 16.8623C21.645 15.9741 22.3672 15.2437 23.2637 15.2437C24.1602 15.2437 24.8906 15.9741 24.8906 16.8623C24.8906 17.7588 24.1602 18.4893 23.2637 18.4893ZM4.72803 17.7671C5.23438 17.7671 5.63281 17.3604 5.63281 16.8623C5.63281 16.3726 5.23438 15.9658 4.72803 15.9658C4.22998 15.9658 3.83154 16.3726 3.83154 16.8623C3.83154 17.3604 4.22998 17.7671 4.72803 17.7671ZM23.2637 17.7671C23.7617 17.7671 24.1685 17.3604 24.1685 16.8623C24.1685 16.3726 23.7617 15.9658 23.2637 15.9658C22.7656 15.9658 22.3672 16.3726 22.3672 16.8623C22.3672 17.3604 22.7656 17.7671 23.2637 17.7671Z" fill="#1C1C1E"/>
</svg>
