<svg width="28" height="28" viewBox="0 0 28 28" fill="none" xmlns="http://www.w3.org/2000/svg">
<path d="M8.79688 22.4258H10.2383V14.8936C10.7305 14.8408 11.0381 14.5332 11.0381 14.0146V12.5732C12.4883 11.9668 13.5078 10.5254 13.5078 8.88184C13.5078 6.68457 11.6797 4.90039 9.51758 4.90039C9.12207 4.90039 8.7793 4.93555 8.46289 5.03223V7.29102C8.7793 7.0625 9.13965 6.93945 9.51758 6.93945C10.5459 6.93945 11.4336 7.82715 11.4336 8.88184C11.4336 9.92773 10.5723 10.7803 9.51758 10.7803C8.43652 10.7803 7.60156 9.94531 7.60156 8.88184V5.375C6.33594 6.08691 5.52734 7.39648 5.52734 8.88184C5.52734 10.5605 6.54688 11.9844 7.99707 12.5732V14.0146C7.99707 14.5332 8.31348 14.8408 8.79688 14.8936V22.4258ZM19.1943 22.4258V14.8936C19.6777 14.8408 19.9941 14.5332 19.9941 14.0146V12.5732C21.4443 11.9668 22.4639 10.5254 22.4639 8.88184C22.4639 6.68457 20.6357 4.90039 18.4736 4.90039C18.0869 4.90039 17.7354 4.93555 17.4189 5.03223V7.29102C17.7354 7.0625 18.0957 6.93945 18.4736 6.93945C19.502 6.93945 20.3896 7.82715 20.3896 8.88184C20.3896 9.92773 19.5283 10.7803 18.4736 10.7803C17.4014 10.7803 16.5576 9.94531 16.5576 8.88184V5.375C15.292 6.08691 14.4834 7.39648 14.4834 8.88184C14.4834 10.5605 15.5029 11.9844 16.9531 12.5732V14.0146C16.9531 14.5332 17.2607 14.8408 17.7529 14.8936V22.4258H19.1943ZM4.78027 8.89062C4.78027 7.32617 5.54492 5.9375 6.71387 5.07617C4.57812 5.14648 2.93457 6.78125 2.93457 8.89062C2.93457 10.9912 4.55176 12.6436 6.71387 12.7051C5.54492 11.8525 4.78027 10.4639 4.78027 8.89062ZM23.2109 8.89062C23.2109 10.4639 22.4463 11.8525 21.2773 12.7051C23.4131 12.6436 25.0566 11.0088 25.0566 8.89062C25.0566 6.79883 23.4395 5.14648 21.2773 5.07617C22.4463 5.9375 23.2109 7.32617 23.2109 8.89062ZM9.51758 9.93652C10.0801 9.93652 10.5635 9.44434 10.5635 8.88184C10.5635 8.3457 10.0625 7.83594 9.51758 7.83594C8.96387 7.83594 8.47168 8.31934 8.47168 8.88184C8.47168 9.45312 8.94629 9.93652 9.51758 9.93652ZM18.4736 9.93652C19.0361 9.93652 19.5195 9.44434 19.5195 8.88184C19.5195 8.3457 19.0273 7.83594 18.4736 7.83594C17.9287 7.83594 17.4277 8.31934 17.4277 8.88184C17.4277 9.45312 17.9023 9.93652 18.4736 9.93652Z" fill="#1C1C1E"/>
</svg>
