<svg width="28" height="28" viewBox="0 0 28 28" fill="none" xmlns="http://www.w3.org/2000/svg">
<path d="M7.51368 15.2803H8.27833C8.77051 15.2803 9.14844 14.9023 9.14844 14.4189V13.4961C10.5459 13.5752 12.4443 13.6279 13.9912 13.6279C15.5469 13.6279 17.4365 13.5752 18.8428 13.4961V14.4189C18.8428 14.9023 19.2207 15.2803 19.7129 15.2803H20.4775C20.9697 15.2803 21.3477 14.9023 21.3477 14.4189V12.916C21.6289 12.6436 21.7871 12.2568 21.7871 11.7734V10.6484C21.7871 9.49707 21.5674 8.84668 20.9522 8.07324L20.4072 7.3877C20.1699 6.24512 19.7481 5.04102 19.5283 4.56641C19.168 3.80176 18.4561 3.31836 17.5244 3.18652C17.0762 3.125 15.7315 3.08984 13.9912 3.08984C12.2861 3.08984 10.9238 3.125 10.4668 3.18652C9.54395 3.30078 8.83204 3.78418 8.45411 4.56641C8.23438 5.04102 7.81251 6.24512 7.5752 7.3877L7.03907 8.07324C6.42383 8.84668 6.20411 9.49707 6.20411 10.6484V11.7734C6.20411 12.2568 6.36231 12.6436 6.64356 12.916V14.4189C6.64356 14.9023 7.02149 15.2803 7.51368 15.2803ZM13.9912 12.3887C11.8203 12.3887 9.09571 12.292 8.07618 12.1689C7.61036 12.1074 7.43458 11.9141 7.43458 11.457V10.5957C7.43458 9.76953 7.5752 9.38281 8.02344 8.81152L8.72657 7.88867C8.87598 7.02734 9.29786 5.7002 9.56153 5.1377C9.75489 4.71582 10.124 4.47852 10.6426 4.42578C11.0732 4.37305 12.3125 4.31152 13.9912 4.31152C15.6787 4.31152 16.9443 4.37305 17.3311 4.42578C17.8584 4.4873 18.2275 4.71582 18.4297 5.14648C18.7022 5.70898 19.1152 7.03613 19.2647 7.88867L19.959 8.81152C20.4072 9.38281 20.5566 9.76953 20.5566 10.5957V11.457C20.5566 11.9229 20.3721 12.1074 19.915 12.1689C18.8867 12.292 16.1709 12.3887 13.9912 12.3887ZM9.46485 7.2207C9.40333 7.48438 9.51758 7.59863 9.79005 7.58984C10.7393 7.52832 11.917 7.4668 13.9912 7.4668C16.0654 7.4668 17.2432 7.52832 18.1924 7.58984C18.4648 7.59863 18.5879 7.48438 18.5264 7.2207C18.3857 6.59668 18.1133 5.7793 17.9287 5.4541C17.7529 5.1377 17.542 5.00586 17.1729 4.95312C16.7422 4.8916 15.7227 4.85645 13.9912 4.85645C12.2598 4.85645 11.2402 4.8916 10.8184 4.95312C10.4492 5.00586 10.2383 5.1377 10.0537 5.4541C9.87794 5.7793 9.60547 6.59668 9.46485 7.2207ZM9.38575 11.6855C9.99219 11.6855 10.458 11.2285 10.458 10.6133C10.458 10.0068 9.99219 9.5498 9.38575 9.5498C8.7793 9.5498 8.32227 10.0068 8.32227 10.6133C8.32227 11.2285 8.7793 11.6855 9.38575 11.6855ZM18.5967 11.6855C19.2031 11.6855 19.669 11.2285 19.669 10.6133C19.669 10.0068 19.2031 9.5498 18.5967 9.5498C17.9902 9.5498 17.5332 10.0068 17.5332 10.6133C17.5332 11.2285 17.9902 11.6855 18.5967 11.6855ZM12.2773 11.4219H15.7051C16.1621 11.4219 16.4873 11.1055 16.4873 10.6484C16.4873 10.1914 16.1621 9.875 15.7051 9.875H12.2773C11.8203 9.875 11.5039 10.1914 11.5039 10.6484C11.5039 11.1055 11.8203 11.4219 12.2773 11.4219ZM5.3252 24.1133H5.37794C8.19044 24.1133 8.41016 22.3115 9.79883 22.3115C11.1611 22.3115 11.5215 24.1133 14 24.1133C16.4697 24.1133 16.8389 22.3115 18.2012 22.3115C19.5898 22.3115 19.8096 24.1133 22.6221 24.1133H22.6748C23.0703 24.1133 23.3867 23.7881 23.3867 23.3926C23.3867 22.9971 23.0703 22.6719 22.6748 22.6719H22.6221C21.8838 22.6719 21.4092 22.4258 20.8643 22.0654L23.4395 18.6641C24.3096 17.5127 23.7471 16.2119 22.2617 16.2119H5.73829C4.24415 16.2119 3.69044 17.5215 4.56055 18.6641L7.12696 22.0654C6.59083 22.4258 6.10743 22.6719 5.37794 22.6719H5.3252C4.92969 22.6719 4.6045 22.9971 4.6045 23.3926C4.6045 23.7881 4.92969 24.1133 5.3252 24.1133ZM12.1631 21.8633C11.583 21.4326 10.8359 20.8789 9.79883 20.8789C9.20997 20.8789 8.70899 21.0635 8.28712 21.292L5.87012 18.0312C5.70313 17.8027 5.8086 17.5391 6.11622 17.5391H21.8838C22.1914 17.5391 22.2969 17.8027 22.1211 18.0312L19.7129 21.292C19.291 21.0547 18.79 20.8789 18.2012 20.8789C17.1641 20.8789 16.417 21.4326 15.8369 21.8633C15.2217 22.3203 14.7559 22.6719 14 22.6719C13.2354 22.6719 12.7695 22.3203 12.1631 21.8633Z" fill="#1C1C1E"/>
</svg>
