<svg width="28" height="28" viewBox="0 0 28 28" fill="none" xmlns="http://www.w3.org/2000/svg">
<path d="M1.50195 13.6631C1.50195 14.1201 1.87109 14.5244 2.3457 14.5244H4.96484C5.41309 19.0947 9.32422 22.7334 14.0088 22.7334C18.6846 22.7334 22.5957 19.0947 23.0439 14.5244H25.6543C26.1289 14.5244 26.498 14.1201 26.498 13.6631C26.498 13.1973 26.1289 12.793 25.6543 12.793H23.0439C22.6045 8.22266 18.6758 4.5752 14 4.5752C9.31543 4.5752 5.4043 8.22266 4.96484 12.793H2.3457C1.87109 12.793 1.50195 13.1973 1.50195 13.6631ZM14 6.36816C17.7529 6.36816 20.8203 9.16309 21.2422 12.793H6.77539C7.18848 9.16309 10.2471 6.36816 14 6.36816ZM14.0088 20.9492C10.2559 20.9492 7.19727 18.1543 6.77539 14.5244H21.251C20.8291 18.1543 17.7529 20.9492 14.0088 20.9492Z" fill="#1C1C1E"/>
</svg>
