<svg width="394" height="31" viewBox="0 0 394 31" fill="none" xmlns="http://www.w3.org/2000/svg">
<rect width="394" height="31" rx="11" fill="url(#paint0_linear_507_2402)"/>
<path d="M18.2007 12.3193C18.7593 12.3193 19.1909 11.8813 19.1909 11.3545C19.1909 10.8276 18.7593 10.3896 18.2007 10.3896C17.6421 10.3896 17.2104 10.8276 17.2104 11.3545C17.2104 11.8813 17.6421 12.3193 18.2007 12.3193ZM17.2739 20H19.1274V13.1953H17.2739V20ZM24.6626 20.1587C27.3857 20.1587 29.0806 18.3369 29.0806 15.4233V15.4106C29.0806 12.5034 27.3794 10.6816 24.6626 10.6816C21.9521 10.6816 20.2446 12.4971 20.2446 15.4106V15.4233C20.2446 18.3369 21.9395 20.1587 24.6626 20.1587ZM24.6626 18.5337C23.1582 18.5337 22.1997 17.3403 22.1997 15.4233V15.4106C22.1997 13.4937 23.1646 12.3066 24.6626 12.3066C26.167 12.3066 27.1255 13.5 27.1255 15.4106V15.4233C27.1255 17.3213 26.186 18.5337 24.6626 18.5337ZM33.6636 20.1587C35.9741 20.1587 37.3579 19.0415 37.3579 17.2832V17.2769C37.3579 15.8359 36.4946 15.0552 34.5776 14.6743L33.6064 14.4775C32.5527 14.2681 32.083 13.9316 32.083 13.354V13.3477C32.083 12.6938 32.6733 12.2432 33.6572 12.2368C34.603 12.2368 35.2632 12.6748 35.3584 13.3921L35.3647 13.4683H37.1738L37.1675 13.3477C37.0786 11.7417 35.7773 10.6816 33.6572 10.6816C31.626 10.6816 30.166 11.7861 30.166 13.4619V13.4683C30.166 14.8457 31.0801 15.709 32.8892 16.0708L33.854 16.2612C34.9902 16.4961 35.4409 16.8071 35.4409 17.4292V17.4355C35.4409 18.1338 34.7744 18.5972 33.7144 18.5972C32.667 18.5972 31.9116 18.1528 31.791 17.4419L31.7783 17.3721H29.9692L29.9756 17.4736C30.0835 19.1621 31.4863 20.1587 33.6636 20.1587ZM43.2866 20H45.1846V10.8403H43.2803L40.9126 12.4844V14.1855L43.2485 12.5986H43.2866V20ZM50.7578 20.1587C52.8525 20.1587 54.2998 18.8574 54.2998 16.9404V16.9277C54.2998 15.2012 53.043 13.9507 51.3037 13.9507C50.377 13.9507 49.6216 14.3252 49.2407 14.9409H49.2026L49.4248 12.3638H53.7476V10.8403H47.9014L47.4824 16.2168H49.1519C49.2598 16.0264 49.4058 15.8486 49.5898 15.709C49.9009 15.4614 50.3008 15.3218 50.7705 15.3218C51.7607 15.3218 52.4653 16.001 52.4717 16.9658V16.9785C52.4717 17.9561 51.7671 18.6416 50.7642 18.6416C49.8818 18.6416 49.2407 18.1084 49.1074 17.4165L49.0947 17.3721H47.3237L47.3301 17.4673C47.4443 18.9971 48.7646 20.1587 50.7578 20.1587ZM56.2231 20.1079C56.7944 20.1079 57.2515 19.6509 57.2515 19.0796C57.2515 18.502 56.7944 18.0513 56.2231 18.0513C55.6455 18.0513 55.1948 18.502 55.1948 19.0796C55.1948 19.6509 55.6455 20.1079 56.2231 20.1079ZM61.8662 20.1587C64.1895 20.1587 65.5986 18.3369 65.5986 15.4233V15.4106C65.5986 12.4971 64.1895 10.6816 61.8662 10.6816C59.543 10.6816 58.1338 12.4971 58.1338 15.4106V15.4233C58.1338 18.3369 59.543 20.1587 61.8662 20.1587ZM61.8662 18.6226C60.7236 18.6226 60.0698 17.4355 60.0698 15.4233V15.4106C60.0698 13.3984 60.7236 12.2178 61.8662 12.2178C63.0088 12.2178 63.6626 13.3984 63.6626 15.4106V15.4233C63.6626 17.4355 63.0088 18.6226 61.8662 18.6226ZM66.8936 17.0864H69.5278V19.5239H71.1465V17.0864H73.7871V15.4678H71.1465V13.0239H69.5278V15.4678H66.8936V17.0864Z" fill="white"/>
<defs>
<linearGradient id="paint0_linear_507_2402" x1="197" y1="0" x2="197" y2="31" gradientUnits="userSpaceOnUse">
<stop/>
<stop offset="1" stop-opacity="0.63"/>
</linearGradient>
</defs>
</svg>
