<svg width="394" height="31" viewBox="0 0 394 31" fill="none" xmlns="http://www.w3.org/2000/svg">
<rect width="394" height="31" rx="11" fill="black"/>
<path d="M17.395 20H19.3057V14.0015H19.3438L23.4951 20H25.1582V10.8403H23.2476V16.7944H23.2095L19.0708 10.8403H17.395V20ZM29.627 20.1396C31.5693 20.1396 32.5088 18.9907 32.7183 17.9878L32.7373 17.918H31.0361L31.0234 17.9561C30.8901 18.3369 30.4268 18.7559 29.665 18.7559C28.7192 18.7559 28.1289 18.1211 28.1099 17.0356H32.7944V16.4644C32.7944 14.4077 31.5439 13.0557 29.5508 13.0557C27.5576 13.0557 26.2817 14.4395 26.2817 16.604V16.6104C26.2817 18.7876 27.5449 20.1396 29.627 20.1396ZM29.5825 14.4395C30.3506 14.4395 30.9028 14.9282 31.0171 15.8677H28.1289C28.2495 14.9473 28.8208 14.4395 29.5825 14.4395ZM35.0415 20H36.9902L38.2153 15.1885H38.2534L39.4849 20H41.459L43.2617 13.1953H41.4336L40.3989 18.2417H40.3608L39.1484 13.1953H37.3711L36.165 18.2417H36.127L35.0986 13.1953H33.2324L35.0415 20ZM47.5273 12.3193C48.0859 12.3193 48.5176 11.8813 48.5176 11.3545C48.5176 10.8276 48.0859 10.3896 47.5273 10.3896C46.9688 10.3896 46.5371 10.8276 46.5371 11.3545C46.5371 11.8813 46.9688 12.3193 47.5273 12.3193ZM46.6006 20H48.4541V13.1953H46.6006V20ZM52.8086 20.1396C54.624 20.1396 55.7983 19.0098 55.8872 17.5244V17.4863H54.1606L54.1543 17.5435C54.0273 18.229 53.564 18.686 52.8213 18.686C51.9072 18.686 51.3359 17.9307 51.3359 16.5977V16.5913C51.3359 15.29 51.9072 14.5093 52.8149 14.5093C53.583 14.5093 54.0337 15.0044 54.1479 15.6519L54.1606 15.709H55.8809V15.6646C55.811 14.1919 54.6367 13.0557 52.7896 13.0557C50.752 13.0557 49.4507 14.4077 49.4507 16.585V16.5913C49.4507 18.7876 50.7329 20.1396 52.8086 20.1396ZM59.9053 20.1396C61.9619 20.1396 63.2759 18.8193 63.2759 16.5977V16.585C63.2759 14.3823 61.9365 13.0557 59.8989 13.0557C57.8677 13.0557 56.5347 14.395 56.5347 16.585V16.5977C56.5347 18.813 57.8359 20.1396 59.9053 20.1396ZM59.9116 18.686C58.9976 18.686 58.4199 17.9307 58.4199 16.5977V16.585C58.4199 15.271 59.0039 14.5093 59.8989 14.5093C60.8003 14.5093 61.3906 15.271 61.3906 16.585V16.5977C61.3906 17.9243 60.813 18.686 59.9116 18.686ZM64.2344 20H66.0879V16.0898C66.0879 15.2012 66.6147 14.5918 67.4463 14.5918C68.2778 14.5918 68.6968 15.0996 68.6968 15.9883V20H70.5503V15.6074C70.5503 14.0142 69.6997 13.0557 68.2017 13.0557C67.1733 13.0557 66.4751 13.5317 66.126 14.3125H66.0879V13.1953H64.2344V20ZM74.5239 20.1396C76.2759 20.1396 77.501 19.2637 77.501 17.9307V17.9243C77.501 16.9214 76.917 16.3628 75.4951 16.0645L74.3398 15.8169C73.6543 15.6709 73.4194 15.4424 73.4194 15.0933V15.0869C73.4194 14.6489 73.8193 14.3633 74.4604 14.3633C75.146 14.3633 75.5459 14.7314 75.6094 15.2202L75.6157 15.271H77.3232V15.2075C77.2788 14.0142 76.2695 13.0557 74.4604 13.0557C72.7275 13.0557 71.6104 13.8936 71.6104 15.1885V15.1948C71.6104 16.2104 72.2769 16.8706 73.5972 17.1499L74.7524 17.3911C75.4189 17.5371 75.6475 17.7466 75.6475 18.1084V18.1147C75.6475 18.5527 75.2222 18.8257 74.5239 18.8257C73.7812 18.8257 73.3813 18.5146 73.2607 17.9814L73.248 17.9243H71.439L71.4453 17.9814C71.5913 19.27 72.6387 20.1396 74.5239 20.1396Z" fill="white"/>
</svg>
