<svg width="394" height="31" viewBox="0 0 394 31" fill="none" xmlns="http://www.w3.org/2000/svg">
<rect width="394" height="31" rx="11" fill="url(#paint0_linear_507_764)"/>
<path d="M18.2012 12.3193C18.7598 12.3193 19.1914 11.8813 19.1914 11.3545C19.1914 10.8276 18.7598 10.3896 18.2012 10.3896C17.6426 10.3896 17.2109 10.8276 17.2109 11.3545C17.2109 11.8813 17.6426 12.3193 18.2012 12.3193ZM17.2744 20H19.1279V13.1953H17.2744V20ZM24.6631 20.1587C27.3862 20.1587 29.0811 18.3369 29.0811 15.4233V15.4106C29.0811 12.5034 27.3799 10.6816 24.6631 10.6816C21.9526 10.6816 20.2451 12.4971 20.2451 15.4106V15.4233C20.2451 18.3369 21.9399 20.1587 24.6631 20.1587ZM24.6631 18.5337C23.1587 18.5337 22.2002 17.3403 22.2002 15.4233V15.4106C22.2002 13.4937 23.165 12.3066 24.6631 12.3066C26.1675 12.3066 27.126 13.5 27.126 15.4106V15.4233C27.126 17.3213 26.1865 18.5337 24.6631 18.5337ZM33.6641 20.1587C35.9746 20.1587 37.3584 19.0415 37.3584 17.2832V17.2769C37.3584 15.8359 36.4951 15.0552 34.5781 14.6743L33.6069 14.4775C32.5532 14.2681 32.0835 13.9316 32.0835 13.354V13.3477C32.0835 12.6938 32.6738 12.2432 33.6577 12.2368C34.6035 12.2368 35.2637 12.6748 35.3589 13.3921L35.3652 13.4683H37.1743L37.168 13.3477C37.0791 11.7417 35.7778 10.6816 33.6577 10.6816C31.6265 10.6816 30.1665 11.7861 30.1665 13.4619V13.4683C30.1665 14.8457 31.0806 15.709 32.8896 16.0708L33.8545 16.2612C34.9907 16.4961 35.4414 16.8071 35.4414 17.4292V17.4355C35.4414 18.1338 34.7749 18.5972 33.7148 18.5972C32.6675 18.5972 31.9121 18.1528 31.7915 17.4419L31.7788 17.3721H29.9697L29.9761 17.4736C30.084 19.1621 31.4868 20.1587 33.6641 20.1587ZM43.2871 20H45.1851V10.8403H43.2808L40.9131 12.4844V14.1855L43.249 12.5986H43.2871V20ZM50.7583 20.1587C52.853 20.1587 54.3003 18.8574 54.3003 16.9404V16.9277C54.3003 15.2012 53.0435 13.9507 51.3042 13.9507C50.3774 13.9507 49.6221 14.3252 49.2412 14.9409H49.2031L49.4253 12.3638H53.748V10.8403H47.9019L47.4829 16.2168H49.1523C49.2603 16.0264 49.4062 15.8486 49.5903 15.709C49.9014 15.4614 50.3013 15.3218 50.771 15.3218C51.7612 15.3218 52.4658 16.001 52.4722 16.9658V16.9785C52.4722 17.9561 51.7676 18.6416 50.7646 18.6416C49.8823 18.6416 49.2412 18.1084 49.1079 17.4165L49.0952 17.3721H47.3242L47.3306 17.4673C47.4448 18.9971 48.7651 20.1587 50.7583 20.1587ZM56.2236 20.1079C56.7949 20.1079 57.252 19.6509 57.252 19.0796C57.252 18.502 56.7949 18.0513 56.2236 18.0513C55.646 18.0513 55.1953 18.502 55.1953 19.0796C55.1953 19.6509 55.646 20.1079 56.2236 20.1079ZM61.8667 20.1587C64.1899 20.1587 65.5991 18.3369 65.5991 15.4233V15.4106C65.5991 12.4971 64.1899 10.6816 61.8667 10.6816C59.5435 10.6816 58.1343 12.4971 58.1343 15.4106V15.4233C58.1343 18.3369 59.5435 20.1587 61.8667 20.1587ZM61.8667 18.6226C60.7241 18.6226 60.0703 17.4355 60.0703 15.4233V15.4106C60.0703 13.3984 60.7241 12.2178 61.8667 12.2178C63.0093 12.2178 63.6631 13.3984 63.6631 15.4106V15.4233C63.6631 17.4355 63.0093 18.6226 61.8667 18.6226ZM66.894 17.0864H69.5283V19.5239H71.147V17.0864H73.7876V15.4678H71.147V13.0239H69.5283V15.4678H66.894V17.0864Z" fill="white"/>
<defs>
<linearGradient id="paint0_linear_507_764" x1="197" y1="0" x2="197" y2="31" gradientUnits="userSpaceOnUse">
<stop/>
<stop offset="1" stop-opacity="0.63"/>
</linearGradient>
</defs>
</svg>
