<svg width="394" height="31" viewBox="0 0 394 31" fill="none" xmlns="http://www.w3.org/2000/svg">
<rect width="394" height="31" rx="11" fill="url(#paint0_linear_507_2031)"/>
<path d="M18.2009 12.3193C18.7595 12.3193 19.1911 11.8813 19.1911 11.3545C19.1911 10.8276 18.7595 10.3896 18.2009 10.3896C17.6423 10.3896 17.2107 10.8276 17.2107 11.3545C17.2107 11.8813 17.6423 12.3193 18.2009 12.3193ZM17.2741 20H19.1277V13.1953H17.2741V20ZM24.6628 20.1587C27.386 20.1587 29.0808 18.3369 29.0808 15.4233V15.4106C29.0808 12.5034 27.3796 10.6816 24.6628 10.6816C21.9524 10.6816 20.2448 12.4971 20.2448 15.4106V15.4233C20.2448 18.3369 21.9397 20.1587 24.6628 20.1587ZM24.6628 18.5337C23.1584 18.5337 22.1999 17.3403 22.1999 15.4233V15.4106C22.1999 13.4937 23.1648 12.3066 24.6628 12.3066C26.1672 12.3066 27.1257 13.5 27.1257 15.4106V15.4233C27.1257 17.3213 26.1862 18.5337 24.6628 18.5337ZM33.6638 20.1587C35.9743 20.1587 37.3581 19.0415 37.3581 17.2832V17.2769C37.3581 15.8359 36.4948 15.0552 34.5779 14.6743L33.6067 14.4775C32.5529 14.2681 32.0832 13.9316 32.0832 13.354V13.3477C32.0832 12.6938 32.6736 12.2432 33.6574 12.2368C34.6032 12.2368 35.2634 12.6748 35.3586 13.3921L35.365 13.4683H37.174L37.1677 13.3477C37.0788 11.7417 35.7776 10.6816 33.6574 10.6816C31.6262 10.6816 30.1662 11.7861 30.1662 13.4619V13.4683C30.1662 14.8457 31.0803 15.709 32.8894 16.0708L33.8542 16.2612C34.9904 16.4961 35.4411 16.8071 35.4411 17.4292V17.4355C35.4411 18.1338 34.7746 18.5972 33.7146 18.5972C32.6672 18.5972 31.9118 18.1528 31.7912 17.4419L31.7785 17.3721H29.9695L29.9758 17.4736C30.0837 19.1621 31.4865 20.1587 33.6638 20.1587ZM43.2868 20H45.1848V10.8403H43.2805L40.9128 12.4844V14.1855L43.2487 12.5986H43.2868V20ZM50.758 20.1587C52.8528 20.1587 54.3 18.8574 54.3 16.9404V16.9277C54.3 15.2012 53.0432 13.9507 51.3039 13.9507C50.3772 13.9507 49.6218 14.3252 49.2409 14.9409H49.2029L49.425 12.3638H53.7478V10.8403H47.9016L47.4826 16.2168H49.1521C49.26 16.0264 49.406 15.8486 49.5901 15.709C49.9011 15.4614 50.301 15.3218 50.7707 15.3218C51.761 15.3218 52.4655 16.001 52.4719 16.9658V16.9785C52.4719 17.9561 51.7673 18.6416 50.7644 18.6416C49.882 18.6416 49.2409 18.1084 49.1076 17.4165L49.0949 17.3721H47.3239L47.3303 17.4673C47.4445 18.9971 48.7649 20.1587 50.758 20.1587ZM56.2234 20.1079C56.7946 20.1079 57.2517 19.6509 57.2517 19.0796C57.2517 18.502 56.7946 18.0513 56.2234 18.0513C55.6457 18.0513 55.195 18.502 55.195 19.0796C55.195 19.6509 55.6457 20.1079 56.2234 20.1079ZM61.8664 20.1587C64.1897 20.1587 65.5988 18.3369 65.5988 15.4233V15.4106C65.5988 12.4971 64.1897 10.6816 61.8664 10.6816C59.5432 10.6816 58.134 12.4971 58.134 15.4106V15.4233C58.134 18.3369 59.5432 20.1587 61.8664 20.1587ZM61.8664 18.6226C60.7238 18.6226 60.07 17.4355 60.07 15.4233V15.4106C60.07 13.3984 60.7238 12.2178 61.8664 12.2178C63.009 12.2178 63.6628 13.3984 63.6628 15.4106V15.4233C63.6628 17.4355 63.009 18.6226 61.8664 18.6226ZM66.8938 17.0864H69.528V19.5239H71.1467V17.0864H73.7873V15.4678H71.1467V13.0239H69.528V15.4678H66.8938V17.0864Z" fill="white"/>
<defs>
<linearGradient id="paint0_linear_507_2031" x1="197" y1="0" x2="197" y2="31" gradientUnits="userSpaceOnUse">
<stop/>
<stop offset="1" stop-opacity="0.63"/>
</linearGradient>
</defs>
</svg>
