<svg width="28" height="28" viewBox="0 0 28 28" fill="none" xmlns="http://www.w3.org/2000/svg">
<path d="M14.7646 5.14649L17.0762 6.86036C17.5947 7.23829 18.1396 7.0713 18.1396 6.41212V5.31349H18.4297C20.293 5.31349 21.4971 6.63185 21.4971 8.48634V9.87501C21.4971 10.2266 21.7871 10.5254 22.1387 10.5254C22.4902 10.5254 22.7803 10.2266 22.7803 9.87501V8.48634C22.7803 5.88478 21.0049 4.11817 18.4209 4.11817H18.1396V2.9756C18.1396 2.29884 17.5947 2.13185 17.0762 2.51857L14.7646 4.24122C14.3955 4.51368 14.3867 4.86524 14.7646 5.14649ZM5.03516 10.209C5.03516 10.71 5.38672 11.044 5.92285 11.044H9.59668V17.2578C9.59668 17.7149 9.9043 18.0137 10.3613 18.0137H16.6631V21.626C16.6631 22.1621 17.0146 22.5313 17.542 22.5313C18.0781 22.5313 18.4297 22.1621 18.4297 21.626V18.0137H22.0684C22.5957 18.0137 22.9561 17.6797 22.9561 17.1699C22.9561 16.669 22.5957 16.335 22.0684 16.335H18.4297V10.1211C18.4297 9.66407 18.1309 9.36524 17.6738 9.36524H11.3721V5.79689C11.3721 5.26075 11.0205 4.89161 10.4932 4.89161C9.95703 4.89161 9.59668 5.26075 9.59668 5.79689V9.36524H5.92285C5.38672 9.36524 5.03516 9.70802 5.03516 10.209ZM11.627 16.335C11.4424 16.335 11.3721 16.2647 11.3721 16.0801V11.044H16.4082C16.584 11.044 16.6631 11.1143 16.6631 11.2988V16.335H11.627ZM5.26367 18.9014C5.26367 21.5029 7.03906 23.2695 9.62305 23.2695H9.9043V24.4033C9.9043 25.0889 10.4492 25.2559 10.9678 24.8692L13.2793 23.1465C13.6484 22.874 13.6572 22.5137 13.2793 22.2412L10.9678 20.5274C10.458 20.1494 9.9043 20.3164 9.9043 20.9756V22.0742H9.61426C7.75977 22.0742 6.54688 20.7559 6.54688 18.9014V17.5039C6.54688 17.1524 6.25684 16.8623 5.90527 16.8623C5.55371 16.8623 5.26367 17.1524 5.26367 17.5039V18.9014Z" fill="#1C1C1E"/>
</svg>
