<svg width="28" height="28" viewBox="0 0 28 28" fill="none" xmlns="http://www.w3.org/2000/svg">
<path d="M11.9199 20.9336C12.5645 20.9336 13.1504 20.8018 13.6484 20.5601C13.231 20.333 12.9746 19.9595 12.894 19.4541C12.623 19.5713 12.3154 19.6226 11.9785 19.6226C10.6455 19.6226 9.83984 18.8022 9.83984 17.4399V10.958C9.83984 8.21875 11.6416 6.39502 14.3442 6.39502C16.9736 6.39502 18.7241 8.21143 18.7241 10.9214C18.7241 12.4888 18.0869 13.375 17.2666 14.2466C17.75 14.0049 18.3359 14.0488 18.7754 14.3857C19.4785 13.5215 20.0132 12.5547 20.0132 10.9214C20.0132 7.44238 17.7427 5.11328 14.3442 5.11328C10.8799 5.11328 8.55078 7.45703 8.55078 10.958V17.4985C8.55078 19.6226 9.84717 20.9336 11.9199 20.9336ZM11.4072 14.6641C11.7368 14.6641 12.0005 14.4004 12.0005 14.0781V12.562H13.6924C14.1685 12.562 14.4688 12.8477 14.4688 13.2651C14.4688 13.4922 14.3516 13.7778 14.1831 13.9902L13.3481 15.0376C13.2456 15.1694 13.1943 15.3159 13.1943 15.4551C13.1943 15.7773 13.458 16.0337 13.7876 16.0337C13.9634 16.0337 14.1392 15.9458 14.2637 15.7847L15.1719 14.6348C15.4795 14.2393 15.6772 13.6753 15.6772 13.2212C15.6772 12.1226 14.8789 11.3901 13.6704 11.3901H12.0005V10.9287C12.0005 9.57373 12.9307 8.68018 14.3369 8.68018C15.6992 8.68018 16.5854 9.55908 16.5854 10.9141C16.5854 11.2363 16.8564 11.5 17.1787 11.5C17.4937 11.5 17.7646 11.2363 17.7646 10.9141C17.7646 8.87061 16.395 7.50098 14.3369 7.50098C12.2349 7.50098 10.8213 8.87793 10.8213 10.9287V14.0781C10.8213 14.4004 11.085 14.6641 11.4072 14.6641ZM17.8599 22.2007C18.1016 22.2007 18.292 22.0103 18.292 21.7686V15.5723C18.292 15.3232 18.1016 15.1328 17.8599 15.1328C17.6182 15.1328 17.4277 15.3232 17.4277 15.5723V21.7686C17.4277 22.0176 17.6108 22.2007 17.8599 22.2007ZM19.603 21.3657C19.8521 21.3657 20.0352 21.1753 20.0352 20.9336V16.3926C20.0352 16.1582 19.8447 15.9678 19.603 15.9678C19.3687 15.9678 19.1782 16.1582 19.1782 16.3926V20.9336C19.1782 21.1753 19.3687 21.3657 19.603 21.3657ZM16.1167 20.9775C16.3584 20.9775 16.5488 20.7871 16.5488 20.5381V16.7808C16.5488 16.5464 16.3584 16.3486 16.1167 16.3486C15.875 16.3486 15.6846 16.5464 15.6846 16.7808V20.5381C15.6846 20.7871 15.875 20.9775 16.1167 20.9775ZM21.3535 20.0547C21.6025 20.0547 21.7856 19.8716 21.7856 19.6226V17.6963C21.7856 17.4546 21.5952 17.2642 21.3535 17.2642C21.1118 17.2642 20.9214 17.4619 20.9214 17.6963V19.6226C20.9214 19.8716 21.1118 20.0547 21.3535 20.0547ZM14.3589 19.6738C14.6079 19.6738 14.7983 19.4834 14.7983 19.249V18.0845C14.7983 17.8428 14.6079 17.6523 14.3589 17.6523C14.1245 17.6523 13.9341 17.8428 13.9341 18.0845V19.249C13.9341 19.4834 14.1245 19.6738 14.3589 19.6738Z" fill="#1C1C1E"/>
</svg>
