<svg width="28" height="28" viewBox="0 0 28 28" fill="none" xmlns="http://www.w3.org/2000/svg">
<path d="M18.6758 14.2783L18.9482 13.9883C19.4316 13.4873 19.4404 12.8984 18.9395 12.3975L18.6934 12.1514C20.0908 10.9209 21.6025 10.7979 22.5869 9.80469C23.9492 8.42481 23.5977 6.43848 22.5518 5.38379C21.5146 4.3291 19.5283 3.99512 18.1309 5.34864C17.1289 6.32422 17.0146 7.84473 15.7842 9.24219L15.5469 8.9961C15.0459 8.48633 14.4482 8.50391 13.9473 8.98731L13.6572 9.25977C13.0684 9.81348 13.1562 10.3408 13.6836 10.8594L14.0352 11.2197L7.60156 17.6533C4.77148 20.4834 5.89648 20.4307 4.5166 22.3467L5.42188 23.2959C7.27637 21.916 7.38184 23.1641 10.2383 20.3252L16.7158 13.8916L17.0762 14.252C17.6035 14.7705 18.1133 14.8584 18.6758 14.2783ZM11.3896 16.5898C11.0996 16.2647 11.1611 15.9658 11.4775 15.6406L14.958 12.1338L15.8193 12.9951L12.3125 16.5107C12.0225 16.792 11.6621 16.8799 11.3896 16.5898Z" fill="#1C1C1E"/>
</svg>
