<svg width="28" height="28" viewBox="0 0 28 28" fill="none" xmlns="http://www.w3.org/2000/svg">
<path d="M10.9151 23.375C11.6885 23.375 12.1631 22.9355 12.1543 22.1973L11.9786 12.2393C11.9786 11.8789 12.1016 11.668 12.3916 11.5361C13.587 11 14.1231 10.4375 14.044 8.81152L13.7979 3.42383C13.7715 3.01074 13.5342 2.77344 13.1563 2.77344C12.7784 2.77344 12.5586 3.02832 12.5586 3.44141L12.629 8.6709C12.629 8.99609 12.4268 9.18945 12.1368 9.18945C11.8379 9.18945 11.6358 9.00488 11.627 8.69727L11.5391 3.27441C11.5303 2.87891 11.293 2.63281 10.9151 2.63281C10.5372 2.63281 10.2999 2.87891 10.2911 3.27441L10.2032 8.69727C10.2032 8.99609 9.99224 9.18945 9.69341 9.18945C9.40337 9.18945 9.20122 8.99609 9.21001 8.6709L9.27153 3.44141C9.27153 3.02832 9.05181 2.77344 8.67388 2.77344C8.29595 2.77344 8.05864 3.01953 8.03227 3.42383L7.78618 8.81152C7.70708 10.4375 8.24321 11 9.43852 11.5361C9.72856 11.668 9.85161 11.8789 9.85161 12.2393L9.67583 22.1973C9.65825 22.9355 10.1416 23.375 10.9151 23.375ZM17.9024 15.6055L17.7266 22.1621C17.7002 22.9355 18.1924 23.375 18.9571 23.375C19.7393 23.375 20.2139 22.9707 20.2139 22.2412V3.31836C20.2139 2.86133 19.9151 2.63281 19.5635 2.63281C19.2295 2.63281 18.9922 2.81738 18.7022 3.23047C17.2696 5.24316 16.2852 9.11035 16.2852 12.626V13.0918C16.2852 13.7246 16.5049 14.1553 16.9883 14.4893L17.4629 14.8057C17.7793 15.0254 17.9112 15.2627 17.9024 15.6055Z" fill="#1C1C1E"/>
</svg>
