<svg width="28" height="28" viewBox="0 0 28 28" fill="none" xmlns="http://www.w3.org/2000/svg">
<path d="M8.67383 21.9688H19.3174C21.2158 21.9688 22.2002 20.9932 22.2002 19.1211V8.41602C22.2002 6.54395 21.2158 5.56836 19.3174 5.56836H8.67383C6.77539 5.56836 5.79102 6.53516 5.79102 8.41602V19.1211C5.79102 20.9932 6.77539 21.9688 8.67383 21.9688ZM8.7793 20.2461C7.96191 20.2461 7.51367 19.8242 7.51367 18.9717V8.56543C7.51367 7.71289 7.96191 7.28223 8.7793 7.28223H19.2119C20.0205 7.28223 20.4775 7.71289 20.4775 8.56543V18.9717C20.4775 19.8242 20.0205 20.2461 19.2119 20.2461H8.7793ZM10.5723 15.2979C10.5723 17.4512 12.0137 18.7783 14.0088 18.7783C15.459 18.7783 16.4609 18.2158 17.1553 16.8975C17.5947 16.1504 17.9023 15.166 18.1924 14.2432C18.333 13.7949 18.5176 13.2412 18.5352 12.9951C18.5439 12.7051 18.3506 12.4941 18.0518 12.4766C17.7266 12.4678 17.5156 12.6611 17.3047 13.1006L16.6191 14.5596C16.5576 14.7002 16.4873 14.7529 16.417 14.7529C16.3291 14.7529 16.2764 14.6914 16.2764 14.5508V9.41797C16.2764 9.11035 16.0215 8.85547 15.7139 8.85547C15.3975 8.85547 15.1514 9.11035 15.1514 9.41797V13.1094C15.0283 13.0742 14.8965 13.0303 14.7559 13.0039V8.71484C14.7559 8.40723 14.5098 8.15234 14.2021 8.15234C13.8857 8.15234 13.6396 8.40723 13.6396 8.71484V12.9512C13.499 12.9688 13.3584 12.9775 13.2266 13.0039V9.12793C13.2266 8.82031 12.9717 8.57422 12.6553 8.57422C12.3477 8.57422 12.0928 8.82031 12.0928 9.12793V13.3467C11.9521 13.4082 11.8291 13.4873 11.7061 13.5576V10.6572C11.7061 10.3408 11.4512 10.0859 11.1436 10.0859C10.8359 10.0859 10.5723 10.3408 10.5723 10.6572V15.2979Z" fill="#1C1C1E"/>
</svg>
