<svg width="28" height="28" viewBox="0 0 28 28" fill="none" xmlns="http://www.w3.org/2000/svg">
<path d="M6.04596 20.7295C7.76862 20.7295 8.9112 20.123 11.2491 18.998C12.0928 18.5938 12.7432 18.2686 13.2881 18.0312C13.9385 20.7295 16.3907 22.7158 19.3702 22.7158C22.8419 22.7158 25.6104 20 25.6104 16.6074C25.6104 14.7354 24.6788 12.8896 23.879 11.3955L20.6885 5.42773C20.3809 4.88281 19.9327 4.61035 19.3702 4.61035C18.7901 4.61035 18.3419 4.88281 18.0518 5.42773L16.4258 8.45996C16.2237 8.43359 16.0128 8.4248 15.8018 8.4248C14.0616 8.4248 12.9014 9.04004 10.5635 10.165C8.19049 11.3076 7.37311 11.7471 6.04596 11.7471C5.18463 11.7471 4.4112 11.5361 3.54108 11.0088C3.13678 10.7803 2.73249 10.9209 2.52155 11.2373C2.28424 11.5977 2.32819 12.125 2.84674 12.4238C3.76081 12.9775 4.83307 13.3203 6.04596 13.3203C7.76862 13.3203 8.9112 12.7139 11.2491 11.5889C13.4991 10.5078 14.3692 10.0508 15.5997 10.0068L14.8526 11.3955C14.7032 11.6768 14.545 11.9756 14.3956 12.2832C13.2881 12.5293 12.2247 13.0654 10.5635 13.8652C8.19049 15.0078 7.37311 15.4473 6.04596 15.4473C5.18463 15.4473 4.4112 15.2363 3.54108 14.7178C3.13678 14.4893 2.73249 14.6211 2.52155 14.9375C2.28424 15.3066 2.3194 15.8164 2.84674 16.124C3.76081 16.6777 4.83307 17.0205 6.04596 17.0205C7.76862 17.0205 8.9112 16.4141 11.2491 15.2979C12.2423 14.8145 12.963 14.4629 13.5606 14.208C13.3233 14.9111 13.1563 15.6494 13.1299 16.3877C12.4005 16.6777 11.6006 17.0732 10.5635 17.5654C8.19049 18.708 7.37311 19.1562 6.04596 19.1562C5.18463 19.1562 4.4112 18.9453 3.54108 18.418C3.12799 18.1807 2.71491 18.3389 2.50397 18.6641C2.28424 19.0244 2.33698 19.5342 2.84674 19.833C3.76081 20.3779 4.83307 20.7295 6.04596 20.7295ZM19.3702 20.9668C17.1729 20.9668 15.3624 19.4814 14.9493 17.4775C15.2305 17.4248 15.503 17.4072 15.8018 17.4072C16.751 17.4072 17.5421 17.6709 18.3594 18.1631C18.7549 18.3916 19.168 18.251 19.379 17.9346C19.6163 17.5742 19.5635 17.0469 19.0538 16.748C18.0606 16.1416 16.9708 15.834 15.8018 15.834C15.4942 15.834 15.2042 15.8516 14.9229 15.8867C15.0372 15.1572 15.3096 14.4365 15.6524 13.707C15.7051 13.707 15.7491 13.707 15.8018 13.707C16.751 13.707 17.5421 13.9619 18.3594 14.4541C18.7637 14.6914 19.1768 14.542 19.3878 14.2168C19.6163 13.8564 19.5635 13.3379 19.0538 13.0391C18.2452 12.5469 17.3751 12.2568 16.4434 12.1602L17.4454 10.3057C17.753 10.4199 18.0518 10.5693 18.3594 10.7539C18.7549 10.9824 19.1592 10.8418 19.379 10.5342C19.6251 10.1738 19.5811 9.64648 19.0538 9.33887C18.7725 9.17188 18.4913 9.02246 18.1924 8.89941L19.2823 6.87793C19.3262 6.78125 19.4229 6.79004 19.4669 6.87793L22.3233 12.2217C23.1231 13.7158 23.8702 15.1221 23.8702 16.6074C23.8702 19.042 21.8663 20.9668 19.3702 20.9668Z" fill="#1C1C1E"/>
</svg>
