<svg width="28" height="28" viewBox="0 0 28 28" fill="none" xmlns="http://www.w3.org/2000/svg">
<path d="M5.38672 21.8721H23.4658C24.6875 21.8721 25.4961 21.0898 25.4961 19.8945V11.3516C25.4961 10.1562 24.6875 9.37402 23.4746 9.37402V8.31934C23.4746 6.43848 22.499 5.46289 20.5918 5.46289H5.38672C3.48828 5.46289 2.50391 6.43848 2.50391 8.31934V19.0156C2.50391 20.8965 3.49707 21.8721 5.38672 21.8721ZM17.4277 19.8945C17.4277 19.9824 17.4277 20.0615 17.4365 20.1494H5.49219C4.6748 20.1494 4.22656 19.7188 4.22656 18.8662V8.45996C4.22656 7.60742 4.6748 7.18555 5.49219 7.18555H20.4951C21.3037 7.18555 21.752 7.60742 21.752 8.45996V9.37402H19.4756C18.2451 9.37402 17.4277 10.1562 17.4277 11.3516V19.8945ZM18.8076 19.6836V11.5625C18.8076 11.0527 19.124 10.7539 19.6602 10.7539H19.7744V11.1055C19.7744 11.4131 19.9766 11.6152 20.2842 11.6152H22.6484C22.9561 11.6152 23.1494 11.4131 23.1494 11.1055V10.7539H23.2637C23.7998 10.7539 24.1162 11.0615 24.1162 11.5625V19.6836C24.1162 20.1846 23.7998 20.4834 23.2637 20.4834H19.6602C19.124 20.4834 18.8076 20.1846 18.8076 19.6836ZM9.58789 19.4463H16.5225C16.7773 19.4463 16.9619 19.2793 16.9619 19.0156C16.9619 18.752 16.7773 18.585 16.5225 18.585H9.58789C9.33301 18.585 9.15723 18.752 9.15723 19.0156C9.15723 19.2793 9.33301 19.4463 9.58789 19.4463ZM20.126 19.9121H22.8066C23.0088 19.9121 23.1494 19.7715 23.1494 19.5693C23.1494 19.3584 23.0088 19.2178 22.8066 19.2178H20.126C19.9238 19.2178 19.7744 19.3584 19.7744 19.5693C19.7744 19.7715 19.9238 19.9121 20.126 19.9121Z" fill="#1C1C1E"/>
</svg>
