<svg width="28" height="28" viewBox="0 0 28 28" fill="none" xmlns="http://www.w3.org/2000/svg">
<path d="M14 2.29883C9.03419 2.29883 4.80665 5.49805 3.27735 9.93652C3.84864 9.83105 4.41993 9.97168 4.84181 10.3232C6.19532 6.5791 9.78126 3.89844 14 3.89844C19.3877 3.89844 23.7647 8.2666 23.7647 13.6543C23.7647 19.0332 19.3877 23.4102 14 23.4102C9.79884 23.4102 6.20411 20.7383 4.84181 16.9941C4.42872 17.3457 3.85743 17.4951 3.28614 17.3809C4.82423 21.8193 9.04298 25.001 14 25.001C20.2666 25.001 25.3555 19.9209 25.3555 13.6543C25.3555 7.3877 20.2666 2.29883 14 2.29883ZM14 21.4502C18.3067 21.4502 21.7959 17.9521 21.7959 13.6543C21.7959 9.34766 18.3067 5.8584 14 5.8584C9.70216 5.8584 6.20411 9.34766 6.20411 13.6543C6.20411 17.9521 9.70216 21.4502 14 21.4502ZM14 19.7803C10.6162 19.7803 7.87403 17.0381 7.87403 13.6543C7.87403 10.2705 10.6162 7.52832 14 7.52832C17.3838 7.52832 20.126 10.2705 20.126 13.6543C20.126 17.0381 17.3838 19.7803 14 19.7803ZM12.5234 17.3105H16.1797C16.5752 17.3105 16.8477 17.0645 16.8477 16.6602C16.8477 16.2559 16.5752 16.0186 16.1797 16.0186H13.332V10.6748C13.332 10.1211 13.042 9.77832 12.5234 9.77832C12.0049 9.77832 11.7236 10.1299 11.7236 10.6748V16.4053C11.7236 16.9502 12.0049 17.3105 12.5234 17.3105ZM3.11915 11.3604L0.69337 13.1709C0.359386 13.4258 0.368175 13.8916 0.69337 14.1377L3.11915 15.957C3.61134 16.335 4.24415 16.1328 4.24415 15.4736V11.835C4.24415 11.2021 3.62892 10.9736 3.11915 11.3604Z" fill="#1C1C1E"/>
</svg>
