<svg width="28" height="28" viewBox="0 0 28 28" fill="none" xmlns="http://www.w3.org/2000/svg">
<path d="M13.9912 22.751C18.9746 22.751 23.0879 18.6377 23.0879 13.6543C23.0879 10.8154 21.6729 8.12595 19.5459 6.52635C19.0713 6.13963 18.4912 6.20994 18.2012 6.62302C17.8848 7.05369 18.0254 7.57224 18.4297 7.9326C20.1611 9.25974 21.2598 11.3076 21.2686 13.6543C21.2773 17.6885 18.0254 20.9316 13.9912 20.9316C9.95703 20.9316 6.73145 17.6885 6.73145 13.6543C6.73145 10.2441 9.03418 7.40525 12.1807 6.60545V7.87986C12.1807 8.55662 12.6816 8.74119 13.2266 8.34568L16.1973 6.2451C16.6367 5.9199 16.6455 5.42771 16.1973 5.11131L13.2354 3.00193C12.6816 2.60642 12.1807 2.7822 12.1807 3.46775V4.75095C8.0498 5.60349 4.90332 9.2949 4.90332 13.6543C4.90332 18.6377 9.0166 22.751 13.9912 22.751ZM9.74609 10.8066C9.67578 11.2021 9.62305 11.7207 9.62305 12.0722C9.62305 14.999 11.3721 16.9502 14.0439 16.9502C15.3535 16.9502 16.1357 16.3613 16.5225 15.9219C16.8389 16.3701 17.0146 16.8447 17.2256 17.4951C17.2783 17.6797 17.4189 17.7588 17.5596 17.7588C17.8584 17.7588 18.1133 17.4951 18.1133 17.1435C18.1133 16.5986 17.3223 15.6582 16.918 15.2803C15.1865 13.6894 12.5762 14.6386 11.9258 12.8984C11.8818 12.7754 12.0049 12.6787 12.1279 12.7842C13.5605 14.0058 15.2217 13.0303 16.8828 14.5508C17.0322 14.6914 17.208 14.6211 17.2432 14.4629C17.2607 14.3486 17.2783 14.1728 17.2783 13.997C17.2783 12.0986 15.96 11.1494 14.0615 11.1494C13.4287 11.1494 12.6992 11.3076 12.1279 11.3076C11.5039 11.3076 10.8184 11.2461 10.2471 10.666C10.0625 10.4902 9.80762 10.5166 9.74609 10.8066Z" fill="#1C1C1E"/>
</svg>
