<svg width="28" height="28" viewBox="0 0 28 28" fill="none" xmlns="http://www.w3.org/2000/svg">
<path d="M11.2227 5.06738C12.7608 5.41016 14.9492 6.06934 16.1621 6.47363C19.2207 7.49316 20.3018 8.80273 20.3018 11.7471C20.3018 13.8916 19.2998 15.0254 17.8321 15.0254C17.3399 15.0254 16.7949 14.8848 16.2237 14.6211V9.27734C16.2237 8.6709 16.1621 8.13477 15.5645 7.94141C15.0723 7.7832 14.8262 8.21387 14.8262 8.80273V22.2236L11.2227 21.0898V5.06738ZM4.23538 19.5166C2.82034 19.0156 2.53909 18.0928 3.38284 17.5215C4.15628 16.9941 4.82424 16.8096 5.501 16.5547L10.4932 14.7529V16.8184L6.85452 18.1191C6.10745 18.3916 5.99319 18.7607 6.55569 18.9453C6.9512 19.0859 8.08499 19.042 8.78811 18.7783L10.4932 18.1543V20.0176C7.93557 20.5625 5.86135 20.0967 4.23538 19.5166ZM15.4942 19.8945L21.2949 17.8115C21.9805 17.5654 22.0332 17.2666 21.4971 17.082C20.9346 16.8975 20.0205 16.915 19.3701 17.1523L15.4942 18.5586V16.3438C16.3291 16.0625 17.4717 15.7637 18.4209 15.6846C19.959 15.5615 21.8926 15.7549 23.5274 16.3086C25.1182 16.8623 25.3028 17.6885 24.8985 18.2158C24.6436 18.5586 23.958 18.9365 22.8594 19.332L15.4942 21.9512V19.8945Z" fill="#1C1C1E"/>
</svg>
