<svg width="28" height="28" viewBox="0 0 28 28" fill="none" xmlns="http://www.w3.org/2000/svg">
<path d="M13.9912 23.876C17.208 23.876 19.1064 22.3027 19.3877 19.1738C19.7129 15.4912 19.7041 11.9316 19.3701 7.98535C19.1152 4.99707 17.208 3.43262 13.9912 3.43262C10.7832 3.43262 8.87595 4.99707 8.62107 7.98535C8.28709 11.9316 8.2783 15.4912 8.60349 19.1738C8.88474 22.3027 10.7832 23.876 13.9912 23.876ZM13.9912 22.1621C11.7939 22.1621 10.5019 21.2217 10.3174 19.1738C10.001 15.4824 10.0097 11.9229 10.3349 7.98535C10.4931 6.08691 11.7939 5.14648 13.9912 5.14648C16.1972 5.14648 17.498 6.08691 17.6562 7.98535C17.9814 11.9229 17.9902 15.4824 17.6738 19.1738C17.4892 21.2217 16.1972 22.1621 13.9912 22.1621ZM14.4306 17.3105C14.5273 17.1787 14.6064 17.0117 14.6064 16.8359C14.6064 16.8096 14.6064 16.7832 14.5976 16.7656C14.4306 16.7656 14.2197 16.8799 14.1142 17.0205C14.0088 17.1348 13.9121 17.3105 13.9121 17.4863C13.9121 17.5039 13.9209 17.5391 13.9209 17.5479H13.9648C14.123 17.5479 14.3164 17.4424 14.4306 17.3105ZM13.9912 20.0176C14.2636 20.0176 14.3164 20.1494 14.5449 20.1494C14.7734 20.1494 14.9316 19.9385 15.0722 19.7275C15.2392 19.499 15.3095 19.2705 15.3095 19.2529C15.292 19.2441 14.8525 19.0771 14.8525 18.5674C14.8525 18.1279 15.1953 17.9434 15.2129 17.917C14.9931 17.6006 14.6416 17.6006 14.5449 17.6006C14.29 17.6006 14.0879 17.7412 13.956 17.7412C13.7978 17.7412 13.622 17.6006 13.4023 17.6006C12.9804 17.6006 12.5498 17.9521 12.5498 18.6025C12.5498 19.0244 12.708 19.4463 12.9013 19.7188C13.0683 19.9648 13.2265 20.1494 13.4375 20.1494C13.6484 20.1494 13.7363 20.0176 13.9912 20.0176Z" fill="#1C1C1E"/>
</svg>
