<svg width="28" height="28" viewBox="0 0 28 28" fill="none" xmlns="http://www.w3.org/2000/svg">
<path d="M8.39258 22.1444L18.3945 23.911C20.3018 24.245 21.4707 23.1727 21.4707 21.1073V10.2792C21.4707 9.27723 21.2158 8.60926 20.6885 8.14344V6.51747C20.6885 4.54872 19.3525 3.59071 17.1377 3.98622L8.12012 5.57704C7.13574 5.70008 6.52051 6.44715 6.52051 7.58094V19.9823C6.52051 21.1864 7.16211 21.9247 8.39258 22.1444ZM18.6143 7.31727L12.9805 6.32411L17.6826 5.53309C18.5088 5.39247 19.0186 5.73524 19.0186 6.44715V7.39637C18.8867 7.36122 18.7549 7.33485 18.6143 7.31727ZM8.89355 20.4393C8.48047 20.3602 8.27832 20.1054 8.27832 19.6835V7.98524C8.27832 7.537 8.57715 7.30848 9.06934 7.38758L18.4912 9.04872C19.291 9.18934 19.7129 9.52332 19.7129 10.2528V20.9315C19.7129 21.8192 19.1943 22.2587 18.3594 22.1093L8.89355 20.4393ZM10.4316 11.2811L16.9883 12.4413C17.4277 12.5204 17.7266 12.2391 17.7266 11.8261C17.7266 11.4657 17.542 11.2636 17.1992 11.202L10.6777 10.0507C10.2383 9.98036 9.92188 10.244 9.92188 10.6483C9.92188 10.9823 10.1064 11.2284 10.4316 11.2811ZM10.4316 14.6825L16.9883 15.8427C17.4277 15.913 17.7266 15.6317 17.7266 15.2274C17.7266 14.8583 17.542 14.6561 17.1992 14.5946L10.6777 13.452C10.2383 13.3729 9.92188 13.6454 9.92188 14.0409C9.92188 14.3837 10.1064 14.621 10.4316 14.6825Z" fill="#1C1C1E"/>
</svg>
