<svg width="28" height="28" viewBox="0 0 28 28" fill="none" xmlns="http://www.w3.org/2000/svg">
<path d="M5.65042 23.1552C7.17971 24.6845 8.97268 24.7021 10.4756 23.1992C11.5215 22.1533 12.6114 19.7363 13.4287 18.7168L15.2569 20.5537C15.9951 21.3007 16.9004 21.3007 17.6211 20.58L18.7813 19.4111C19.3614 18.831 19.4756 18.1455 19.1065 17.5127L22.7451 13.874C23.7735 12.8457 23.7471 11.6152 22.7012 10.5693L15.793 3.65231C14.7823 2.64156 13.0948 3.05465 12.752 4.57516C12.0489 7.62496 11.917 8.34566 11.1084 9.6025C10.5283 9.35641 9.91311 9.49703 9.38577 10.0244L8.22561 11.1845C7.50491 11.9052 7.50491 12.8017 8.25198 13.5488L10.0801 15.3769C9.07815 16.1943 6.65237 17.2841 5.60647 18.33C4.10354 19.833 4.11233 21.6259 5.65042 23.1552ZM17.085 12.9863C17.5156 13.417 19.8272 12.1777 20.8291 11.0966L21.4619 11.7207C21.8223 12.0898 21.8223 12.4941 21.4795 12.8369L18.0078 16.3173L12.3828 10.6836C13.376 9.15426 13.5606 8.03805 14.2637 5.44527C14.3604 5.05856 14.6768 4.95309 14.9405 5.21676L19.0186 9.29488C18.7901 10.6923 18.0254 11.7295 17.1026 12.6523C16.9883 12.7578 17.0059 12.9072 17.085 12.9863ZM9.65823 12.1513L10.3438 11.4834C10.5371 11.29 10.7481 11.2812 10.9502 11.4834L17.3223 17.8554C17.5156 18.0488 17.5156 18.2685 17.3135 18.4619L16.6543 19.1386C16.4522 19.3408 16.2324 19.3496 16.0303 19.1474L13.9209 17.0205C13.5606 16.6601 13.0772 16.6953 12.6641 17.0908C11.9785 17.7675 10.7832 20.6416 9.38577 22.039C8.58596 22.8476 7.61917 22.8388 6.7842 22.0214C5.96682 21.1865 5.96682 20.2109 6.76663 19.4199C8.17288 18.0224 11.0381 16.8271 11.7149 16.1416C12.1104 15.7285 12.1455 15.2451 11.7852 14.8847L9.65823 12.7666C9.46487 12.5644 9.46487 12.3535 9.65823 12.1513ZM8.06741 21.7929C8.6387 21.7929 9.10452 21.3271 9.10452 20.7558C9.10452 20.1845 8.6387 19.7099 8.06741 19.7099C7.48733 19.7099 7.02151 20.1845 7.02151 20.7558C7.02151 21.3271 7.48733 21.7929 8.06741 21.7929Z" fill="#1C1C1E"/>
</svg>
