<svg width="28" height="28" viewBox="0 0 28 28" fill="none" xmlns="http://www.w3.org/2000/svg">
<path d="M4.42868 20.914C6.18649 23.164 9.76364 23.7002 11.9521 21.9511C13.0947 21.0459 13.6484 19.8505 13.5605 18.6377C14.3955 18.4619 15.1601 17.9785 15.9863 17.1523C18.8867 14.2607 23.2549 7.85348 23.6152 7.34371C24.8193 5.65621 22.7539 3.59078 21.0576 4.79488C20.5566 5.14645 14.167 9.48824 11.2754 12.3974C10.4316 13.2412 9.93942 14.0146 9.75485 14.8671C9.07809 14.8671 8.41013 15.0957 7.81247 15.5791C6.45017 16.6601 6.91599 18.1103 6.19528 18.6728C5.55368 19.165 4.87692 18.8574 4.35837 19.2793C3.9277 19.6572 3.91013 20.2724 4.42868 20.914ZM21.6289 6.42086C21.8925 6.21871 22.1826 6.50875 21.9804 6.79C21.5586 7.48434 18.289 12.1162 15.7226 14.9814C15.3183 13.9707 14.4306 13.0742 13.4463 12.6699C16.3291 10.1211 20.917 6.92184 21.6289 6.42086ZM12.6377 16.4404C12.2597 15.9658 11.8379 15.5966 11.3896 15.333C11.4599 14.8232 11.75 14.3222 12.3125 13.7334C13.3496 13.9091 14.4834 15.0429 14.6767 16.0888C14.0615 16.6689 13.5693 16.9414 13.042 17.0205C12.9189 16.8271 12.7871 16.6337 12.6377 16.4404ZM6.45895 20.5976C6.35349 20.4834 6.36227 20.3691 6.44138 20.29C6.56442 20.1757 7.00388 20.123 7.33786 19.789C8.21677 18.9101 7.87399 17.7324 8.85837 16.9326C9.62302 16.2998 10.7129 16.5019 11.4599 17.4248C12.3213 18.4707 12.0664 19.7978 10.9414 20.7031C9.64938 21.7578 7.66306 21.7841 6.45895 20.5976Z" fill="#1C1C1E"/>
</svg>
