<svg width="28" height="28" viewBox="0 0 28 28" fill="none" xmlns="http://www.w3.org/2000/svg">
<path d="M13.9912 22.7422C18.9746 22.7422 23.0879 18.6289 23.0879 13.6543C23.0879 8.67969 18.9658 4.56641 13.9824 4.56641C9.00781 4.56641 4.90332 8.67969 4.90332 13.6543C4.90332 18.6289 9.0166 22.7422 13.9912 22.7422ZM13.9912 20.9316C9.95703 20.9316 6.73145 17.6885 6.73145 13.6543C6.73145 9.62012 9.95703 6.38574 13.9824 6.38574C18.0166 6.38574 21.2598 9.62012 21.2686 13.6543C21.2773 17.6885 18.0254 20.9316 13.9912 20.9316ZM14.1934 19.3145C14.5537 19.3145 14.8086 19.0244 14.9844 18.5762L18.1484 10.2881C18.2363 10.0771 18.2803 9.89258 18.2803 9.72559C18.2803 9.3916 18.0693 9.18066 17.7354 9.18066C17.5684 9.18066 17.3838 9.22461 17.1729 9.3125L8.84961 12.4941C8.44531 12.6436 8.14648 12.8984 8.14648 13.2764C8.14648 13.7246 8.47168 13.8916 8.94629 14.041L11.4424 14.7969C11.7852 14.9023 11.9785 14.9023 12.207 14.6826L17.5332 9.73438C17.6035 9.67285 17.6826 9.68164 17.7354 9.72559C17.7969 9.77832 17.7881 9.85742 17.7266 9.92773L12.7959 15.2715C12.5938 15.4824 12.5674 15.6846 12.6641 16.0273L13.4111 18.4707C13.5693 18.9629 13.7275 19.3145 14.1934 19.3145Z" fill="#1C1C1E"/>
</svg>
