<svg width="28" height="28" viewBox="0 0 28 28" fill="none" xmlns="http://www.w3.org/2000/svg">
<path d="M9.0869 22.0039C9.58788 22.0039 9.83397 21.7402 9.92186 21.3184L11.5478 13.373H16.4433L18.0781 21.3184C18.166 21.7402 18.4033 22.0039 18.9131 22.0039C19.6074 22.0039 19.8535 21.4941 19.7217 20.9316L18.0342 12.7754C17.9023 12.1689 17.4101 11.7119 16.8125 11.6855L14.8262 5.91992C14.6855 5.5332 14.4131 5.30469 14.0088 5.30469C13.5869 5.30469 13.2881 5.5332 13.1562 5.91992L11.1699 11.6855C10.581 11.7119 10.0889 12.1689 9.95702 12.7754L8.27831 20.9316C8.14647 21.5029 8.40135 22.0039 9.0869 22.0039Z" fill="#1C1C1E"/>
</svg>
