<svg width="28" height="28" viewBox="0 0 28 28" fill="none" xmlns="http://www.w3.org/2000/svg">
<path d="M20.0117 9.49701L20.9697 8.54779C21.4443 8.07318 21.4619 7.55463 21.0313 7.11518L20.6885 6.7724C20.2578 6.34174 19.7217 6.37689 19.2559 6.84272L18.2979 7.78314L20.0117 9.49701ZM19.8535 19.6923C20.126 19.9648 20.5742 19.9648 20.8379 19.6923C21.1104 19.4111 21.1191 18.9716 20.8379 18.6992L9.2627 7.12397C8.99024 6.8515 8.53321 6.8515 8.26953 7.12397C8.00586 7.39643 8.00586 7.85346 8.26953 8.11713L19.8535 19.6923ZM16.5928 12.8984L19.168 10.3232L17.4629 8.62689L14.8877 11.1933L16.5928 12.8984ZM9.24512 20.246L14.0615 15.4296L12.3564 13.7246L7.54004 18.5322L6.6875 20.6064C6.58203 20.8701 6.8545 21.1513 7.11817 21.0634L9.24512 20.246Z" fill="#1C1C1E"/>
</svg>
