<svg width="28" height="28" viewBox="0 0 28 28" fill="none" xmlns="http://www.w3.org/2000/svg">
<path d="M0.212402 20.7637C0.212402 21.27 0.61084 21.6685 1.10889 21.6685C1.60693 21.6685 2.00537 21.27 2.00537 20.7637C2.00537 13.6001 7.40088 7.74805 14 7.74805C20.5991 7.74805 25.9863 13.6001 25.9863 20.7637C25.9863 21.27 26.3931 21.6685 26.8828 21.6685C27.3809 21.6685 27.7793 21.27 27.7793 20.7637C27.7793 12.6123 21.5952 5.95508 14 5.95508C6.39648 5.95508 0.212402 12.6123 0.212402 20.7637ZM14.0166 15.3433C15.5024 15.3433 16.7725 14.0151 16.7725 12.2969C16.7725 10.6118 15.4941 9.3252 14.0166 9.3252C12.5225 9.3252 11.2358 10.6284 11.2441 12.3052C11.2441 14.0151 12.5142 15.3433 14.0166 15.3433ZM4.4541 20.7637C4.4541 21.2534 4.85254 21.6519 5.35059 21.6519C5.84033 21.6519 6.24707 21.2534 6.24707 20.7637C6.24707 17.6758 7.81592 14.9033 10.2231 13.4258C10.1235 13.0771 10.0654 12.7036 10.0654 12.3135C10.0654 11.9897 10.1069 11.6826 10.1816 11.3921C6.77002 13.0024 4.4541 16.6299 4.4541 20.7637ZM21.7529 20.7637C21.7529 21.2534 22.1514 21.6519 22.6411 21.6519C23.1392 21.6519 23.5376 21.2534 23.5376 20.7637C23.5376 16.6382 21.23 13.0273 17.8433 11.4087C17.9097 11.6909 17.9512 11.9897 17.9512 12.2969C17.9512 12.6953 17.8931 13.0854 17.7852 13.4507C20.1841 14.9199 21.7529 17.6758 21.7529 20.7637ZM9.44287 21.7266H18.5654C19.3374 21.7266 19.8022 21.3613 19.8022 20.7554C19.8022 18.9873 17.561 16.5552 14.0083 16.5552C10.4473 16.5552 8.20605 18.9873 8.20605 20.7554C8.20605 21.3613 8.6709 21.7266 9.44287 21.7266Z" fill="#1C1C1E"/>
</svg>
