<svg width="28" height="28" viewBox="0 0 28 28" fill="none" xmlns="http://www.w3.org/2000/svg">
<path d="M9.80762 23.4453C10.2998 23.4453 10.6689 23.208 11.2666 22.6807L14.2812 20.0088H19.5986C22.2441 20.0088 23.7295 18.4971 23.7295 15.8867V9.06641C23.7295 6.45605 22.2441 4.94434 19.5986 4.94434H8.39258C5.74707 4.94434 4.26172 6.45605 4.26172 9.06641V15.8867C4.26172 18.4971 5.78223 20.0088 8.33105 20.0088H8.69141V22.1797C8.69141 22.9619 9.10449 23.4453 9.80762 23.4453ZM10.2383 21.5117V19.0068C10.2383 18.4883 10.0186 18.2861 9.51758 18.2861H8.43652C6.77539 18.2861 5.98438 17.4512 5.98438 15.834V9.11914C5.98438 7.50195 6.77539 6.66699 8.43652 6.66699H19.5459C21.207 6.66699 22.0068 7.50195 22.0068 9.11914V15.834C22.0068 17.4512 21.207 18.2861 19.5459 18.2861H14.1846C13.6572 18.2861 13.3936 18.374 13.0244 18.7607L10.2383 21.5117ZM9.51758 10.165H18.377C18.6758 10.165 18.9219 9.91895 18.9219 9.61133C18.9219 9.32129 18.6758 9.0752 18.377 9.0752H9.51758C9.21875 9.0752 8.98145 9.32129 8.98145 9.61133C8.98145 9.91895 9.21875 10.165 9.51758 10.165ZM9.51758 12.9688H18.377C18.6758 12.9688 18.9219 12.7139 18.9219 12.415C18.9219 12.1162 18.6758 11.8701 18.377 11.8701H9.51758C9.21875 11.8701 8.98145 12.1162 8.98145 12.415C8.98145 12.7139 9.21875 12.9688 9.51758 12.9688ZM9.51758 15.7637H15.292C15.5908 15.7637 15.8281 15.5176 15.8281 15.2188C15.8281 14.9111 15.5908 14.6738 15.292 14.6738H9.51758C9.21875 14.6738 8.98145 14.9111 8.98145 15.2188C8.98145 15.5176 9.21875 15.7637 9.51758 15.7637Z" fill="#1C1C1E"/>
</svg>
