<svg width="28" height="28" viewBox="0 0 28 28" fill="none" xmlns="http://www.w3.org/2000/svg">
<path d="M2.84668 17.9873C2.84668 19.833 3.77832 20.7646 5.65039 20.7646H22.3408C24.2129 20.7646 25.1445 19.833 25.1445 17.9873V9.33008C25.1445 7.48438 24.2129 6.55273 22.3408 6.55273H7.8125C6.29199 6.55273 5.37793 7.43164 4.90332 8.84668L3.17188 14.1113C2.92578 14.8408 2.84668 15.3857 2.84668 16.0801V17.9873ZM11.8203 13.4961V10.7803C11.8203 10.2793 12.1191 9.98926 12.6201 9.98926H20.4424C20.9434 9.98926 21.251 10.2793 21.251 10.7803V13.4961C21.251 13.9795 20.9434 14.2871 20.4424 14.2871H12.6201C12.1191 14.2871 11.8203 13.9795 11.8203 13.4961ZM6.42383 14.2871C5.93164 14.2871 5.66797 13.8828 5.87891 13.25L6.74023 10.6133C6.87207 10.209 7.06543 9.98926 7.68066 9.98926H8.62109C9.12207 9.98926 9.42969 10.2793 9.42969 10.7803V13.4961C9.42969 13.9795 9.12207 14.2871 8.62109 14.2871H6.42383Z" fill="#1C1C1E"/>
</svg>
