<svg width="22" height="17" viewBox="0 0 22 17" fill="none" xmlns="http://www.w3.org/2000/svg">
<path d="M0.989258 9.43651H3.48535V12.0117C3.48535 13.5674 4.47852 14.4551 6.28027 14.7627L15.7197 16.3447C17.46 16.6435 18.5059 15.5098 18.5059 13.6025V9.43651H21.0107C21.5381 9.43651 21.8721 9.08495 21.8721 8.61034C21.8721 8.11815 21.5381 7.77538 21.0107 7.77538H18.5059V3.60936C18.5059 1.63182 17.5215 0.559556 15.7197 0.867173L6.28027 2.4492C4.47852 2.75682 3.48535 3.63573 3.48535 5.20018V7.77538H0.989258C0.461914 7.77538 0.12793 8.11815 0.12793 8.61034C0.12793 9.08495 0.461914 9.43651 0.989258 9.43651ZM5.12891 5.28807C5.12891 4.58495 5.55957 4.18944 6.32422 4.06639L15.6494 2.51073C16.4316 2.37889 16.8623 2.83592 16.8623 3.73241V7.77538H5.12891V5.28807ZM6.32422 13.1455C5.55957 13.0224 5.12891 12.6269 5.12891 11.9238V9.43651H16.8623V13.4795C16.8623 14.3408 16.4053 14.833 15.6494 14.7012L6.32422 13.1455Z" fill="#1C1C1E"/>
</svg>
