<svg width="28" height="28" viewBox="0 0 28 28" fill="none" xmlns="http://www.w3.org/2000/svg">
<path d="M5.07033 18.2949C4.6924 19.8506 5.46584 20.835 7.16213 20.835H13.1651V23.4277C13.1651 23.9639 13.5078 24.2891 14.0088 24.2891C14.4834 24.2891 14.835 23.9639 14.835 23.4277V20.835H20.8291C22.5254 20.835 23.2988 19.8506 22.9297 18.2949L20.5742 8.55664C20.2403 7.13281 19.4317 6.36816 17.9199 6.36816H14.835V3.77539C14.835 3.24805 14.4834 2.91406 14.0088 2.91406C13.5078 2.91406 13.1651 3.24805 13.1651 3.77539V6.36816H10.0713C8.55959 6.36816 7.751 7.13281 7.41701 8.55664L5.07033 18.2949ZM6.75783 18.2334L8.99025 8.84668C9.13088 8.28418 9.46486 8.00293 10.0713 8.00293H13.1651V19.1914H7.46096C6.89846 19.1914 6.61721 18.8135 6.75783 18.2334ZM17.9199 8.00293C18.5264 8.00293 18.8692 8.28418 19.001 8.84668L21.2334 18.2334C21.374 18.8135 21.0928 19.1914 20.5303 19.1914H14.835V8.00293H17.9199Z" fill="#1C1C1E"/>
</svg>
