<svg width="28" height="28" viewBox="0 0 28 28" fill="none" xmlns="http://www.w3.org/2000/svg">
<path d="M9.51758 23.4629H18.4736C20.0557 23.4629 21.0664 22.4609 21.0928 20.8877L21.207 12.6436L23.0879 13.0654C24.0723 13.2764 24.7051 12.8896 24.9248 11.9141L25.6895 8.65332C25.9092 7.67773 25.5313 7.00098 24.626 6.61426L18.5703 4.03906C18.0781 3.82812 17.7266 3.83691 17.3135 4.03027C16.1445 4.58398 15.2568 4.84766 13.9912 4.84766C12.7344 4.84766 11.8467 4.58398 10.6777 4.03027C10.2647 3.83691 9.91309 3.82812 9.4209 4.03906L3.36524 6.61426C2.45996 7.00098 2.08203 7.67773 2.30176 8.65332L3.06641 11.9141C3.28614 12.8896 3.91895 13.2764 4.90332 13.0654L6.78418 12.6436L6.89844 20.8877C6.92481 22.4609 7.93555 23.4629 9.51758 23.4629ZM9.53516 21.8457C8.91114 21.8457 8.52442 21.4502 8.51563 20.8086L8.39258 11.0088C8.39258 10.7979 8.23438 10.6572 7.99707 10.71L4.87696 11.3955C4.71875 11.4395 4.6045 11.3691 4.56934 11.2197L3.91016 8.44238C3.86621 8.24023 3.92774 8.15234 4.09473 8.08203L9.59668 5.74414C10.0713 7.76562 11.8906 9.18066 13.9912 9.18066C16.1006 9.18066 17.9199 7.76562 18.3945 5.74414L23.8965 8.08203C24.0635 8.15234 24.125 8.24023 24.0723 8.44238L23.4219 11.2197C23.3867 11.3691 23.2725 11.4395 23.1143 11.3955L19.9941 10.71C19.7568 10.6572 19.5986 10.7979 19.5986 11.0088L19.4756 20.8086C19.4668 21.4502 19.0801 21.8457 18.4561 21.8457H9.53516ZM13.9912 6.38574C14.958 6.38574 15.8018 6.23633 16.6191 5.9375C16.127 6.91309 15.1338 7.56348 13.9912 7.56348C12.8574 7.56348 11.8643 6.91309 11.3721 5.9375C12.1895 6.23633 13.0332 6.38574 13.9912 6.38574Z" fill="#1C1C1E"/>
</svg>
