<svg width="28" height="28" viewBox="0 0 28 28" fill="none" xmlns="http://www.w3.org/2000/svg">
<path d="M13.9912 22.7422C18.9746 22.7422 23.0879 18.6289 23.0879 13.6543C23.0879 8.67969 18.9658 4.56641 13.9824 4.56641C9.00781 4.56641 4.90332 8.67969 4.90332 13.6543C4.90332 18.6289 9.0166 22.7422 13.9912 22.7422ZM13.9912 20.9316C9.95703 20.9316 6.73145 17.6885 6.73145 13.6543C6.73145 9.62012 9.95703 6.38574 13.9824 6.38574C18.0166 6.38574 21.2598 9.62012 21.2686 13.6543C21.2773 17.6885 18.0254 20.9316 13.9912 20.9316ZM11.5654 17.5742H16.5137C16.9443 17.5742 17.2432 17.3018 17.2432 16.8799C17.2432 16.458 16.9531 16.2031 16.5137 16.2031H12.9629V16.124L16.6895 11.0791C16.918 10.7891 16.9707 10.6396 16.9707 10.3672C16.9707 9.92773 16.6455 9.62012 16.1885 9.62012H11.4688C11.0381 9.62012 10.7393 9.88379 10.7393 10.3057C10.7393 10.7363 11.0381 10.9912 11.4688 10.9912H14.835V11.0703L11.1084 16.1152C10.8711 16.4229 10.8008 16.5898 10.8008 16.8447C10.8008 17.2754 11.1172 17.5742 11.5654 17.5742Z" fill="#1C1C1E"/>
</svg>
