<svg width="28" height="28" viewBox="0 0 28 28" fill="none" xmlns="http://www.w3.org/2000/svg">
<path d="M20.2139 13.9619L21.6465 12.4062C23.668 10.3408 23.6328 7.73921 21.7783 5.86714C19.9238 3.99507 17.3047 3.97749 15.2393 5.99897L13.6836 7.43159C14.5361 7.15034 15.3887 7.41401 16.25 8.27534L19.458 11.4833C20.3281 12.3447 20.4951 13.1093 20.2139 13.9619ZM12.6553 18.0751C13.5518 18.9804 14.4131 18.998 15.3359 18.0751L18.4385 14.9726C19.3613 14.0498 19.3438 13.1972 18.4473 12.3007L15.3447 9.19819C14.4482 8.30171 13.5957 8.28413 12.6729 9.20698L9.56153 12.3095C8.64746 13.2324 8.66504 14.0937 9.56153 14.9902L12.6553 18.0751ZM13.4111 12.3623C13.0684 12.0195 13.0684 11.4833 13.3936 11.1582C13.7363 10.8154 14.2637 10.8154 14.6064 11.1582C14.9316 11.4833 14.9492 12.0107 14.5889 12.3623C14.2725 12.6787 13.7275 12.6874 13.4111 12.3623ZM11.5127 14.2519C11.1699 13.9091 11.1699 13.3818 11.5127 13.039C11.8467 12.6962 12.374 12.705 12.7168 13.0566C13.0332 13.373 13.0508 13.9091 12.7168 14.2343C12.3652 14.5947 11.8379 14.5771 11.5127 14.2519ZM16.4873 14.2519C16.1621 14.5771 15.626 14.5771 15.2832 14.2343C14.958 13.9179 14.958 13.373 15.2832 13.0566C15.6348 12.6962 16.1621 12.705 16.4873 13.039C16.8301 13.3818 16.8301 13.9091 16.4873 14.2519ZM6.22168 21.4238C8.06739 23.3046 10.6953 23.3222 12.7607 21.2832L14.2988 19.8505C13.4551 20.1318 12.6289 19.8945 11.7676 19.0332L8.55957 15.8251C7.68946 14.955 7.51368 14.1904 7.79493 13.3378L6.35352 14.8847C4.32325 16.9414 4.36719 19.5429 6.22168 21.4238ZM13.3936 16.1328C13.0684 15.8076 13.0508 15.2802 13.4111 14.9287C13.7363 14.5947 14.2725 14.6035 14.5889 14.9287C14.9316 15.2714 14.9492 15.8076 14.6064 16.1328C14.2549 16.4755 13.7363 16.4755 13.3936 16.1328Z" fill="#1C1C1E"/>
</svg>
