<svg width="28" height="28" viewBox="0 0 28 28" fill="none" xmlns="http://www.w3.org/2000/svg">
<path d="M3.3125 11.668H24.6787V11.4043C24.6787 8.1084 22.7715 6.50879 19.2031 6.50879H8.80566C5.2373 6.50879 3.3125 8.09961 3.3125 11.4043V11.668ZM8.80566 20.7998H19.1855C22.9033 20.7998 24.6787 19.0596 24.6787 15.4297V12.5996H3.3125V15.4297C3.3125 19.0596 5.08789 20.7998 8.80566 20.7998ZM14 15.9043C13.5166 15.9131 13.1211 15.5176 13.1211 15.0342C13.1211 14.5508 13.5166 14.1553 14 14.1553C14.4834 14.1553 14.8701 14.5508 14.8701 15.0342C14.8701 15.5176 14.4834 15.9043 14 15.9043Z" fill="#1C1C1E"/>
</svg>
