<svg width="28" height="28" viewBox="0 0 28 28" fill="none" xmlns="http://www.w3.org/2000/svg">
<path d="M14 9.25977C14.7998 9.25977 15.3096 9.43555 16.1533 9.82227L20.8642 11.9844L20.1084 6.43848C19.9678 5.36621 19.3437 4.68945 18.2891 4.68945H17.7441V4.14453C17.7441 3.24805 17.2344 2.75586 16.3379 2.75586H11.6621C10.7656 2.75586 10.2558 3.24805 10.2558 4.14453V4.68945H9.71093C8.66503 4.68945 8.06737 5.36621 7.90038 6.58789L7.14452 11.9756L11.8467 9.82227C12.6904 9.43555 13.2002 9.25977 14 9.25977ZM10.1592 8.31934C9.93065 8.31934 9.78124 8.16113 9.78124 7.93262V6.5791C9.78124 6.35059 9.93065 6.19238 10.1592 6.19238H12.7959C13.0771 6.19238 13.2617 6.35059 13.2617 6.5791V7.93262C13.2617 8.16113 13.0771 8.31934 12.7959 8.31934H10.1592ZM15.1162 8.31934C14.8877 8.31934 14.7383 8.16113 14.7383 7.93262V6.5791C14.7383 6.35059 14.8877 6.19238 15.1162 6.19238H17.7529C18.0342 6.19238 18.2187 6.35059 18.2187 6.5791V7.93262C18.2187 8.16113 18.0342 8.31934 17.7529 8.31934H15.1162ZM14 22.2236C14.3603 22.2236 14.5449 22.1094 15.1865 21.626C15.8808 21.1162 16.874 20.4219 18.2012 20.4219C19.0449 20.4219 19.7392 20.6592 20.5391 21.1514L23.0088 16.8887C23.791 15.5615 23.457 14.5244 22.1299 13.9092L15.6435 10.9385C15.2744 10.7715 14.7383 10.4902 14 10.4902C13.2529 10.4902 12.7256 10.7715 12.3564 10.9385L5.87011 13.9092C4.54296 14.5244 4.20897 15.5615 4.9912 16.8887L7.46093 21.1514C8.26073 20.6592 8.95507 20.4219 9.79882 20.4219C11.1172 20.4219 12.1191 21.1162 12.8047 21.626C13.4551 22.1094 13.6396 22.2236 14 22.2236ZM14 24.7373C16.4697 24.7373 16.8389 22.9443 18.2012 22.9443C19.5898 22.9443 19.8096 24.7373 22.6221 24.7373H22.6748C23.0703 24.7373 23.3867 24.4209 23.3867 24.0166C23.3867 23.6211 23.0703 23.3047 22.6748 23.3047H22.6221C21.7344 23.3047 21.2158 22.9443 20.5303 22.4521C19.9502 22.0303 19.2119 21.5029 18.2012 21.5029C17.1641 21.5029 16.4082 22.0566 15.8369 22.4873C15.2217 22.9531 14.7558 23.3047 14 23.3047C13.2353 23.3047 12.7695 22.9531 12.1631 22.4873C11.583 22.0566 10.8359 21.5029 9.79882 21.5029C8.78807 21.5029 8.041 22.0303 7.46972 22.4521C6.78417 22.9443 6.25682 23.3047 5.37792 23.3047H5.32518C4.92968 23.3047 4.60448 23.6211 4.60448 24.0166C4.60448 24.4209 4.92968 24.7373 5.32518 24.7373H5.37792C8.18163 24.7373 8.41014 22.9443 9.79882 22.9443C11.1611 22.9443 11.5215 24.7373 14 24.7373Z" fill="#1C1C1E"/>
</svg>
