<svg width="28" height="28" viewBox="0 0 28 28" fill="none" xmlns="http://www.w3.org/2000/svg">
<g clip-path="url(#clip0_507_952)">
<path d="M18.3203 21.3359L10.0234 6.96873C9.67182 6.35936 9.164 6.17186 8.57807 6.22655C8.09369 6.28905 7.46088 6.53123 6.85932 6.8828C4.94525 7.99217 4.17963 9.73436 2.34369 10.789C1.54682 11.25 0.835879 11.4297 0.484317 11.6328C0.0155665 11.9062 -0.195371 12.3828 0.085879 12.8672L3.2265 18.3047C3.57807 18.914 4.08588 19.0937 4.67182 19.039C5.15619 18.9922 5.789 18.7344 6.39057 18.3828C8.30463 17.2734 9.07025 15.539 10.8984 14.4765C11.4609 14.1562 11.9765 13.9765 12.3124 13.8437L17.0624 22.0625C17.2578 22.414 17.7031 22.539 18.0546 22.3359C18.3984 22.1328 18.5234 21.6797 18.3203 21.3359ZM14.5703 12.8594L15.414 14.3203L15.6796 13.8437C16.0234 13.9765 16.5312 14.1562 17.0937 14.4765C18.9218 15.539 19.6874 17.2734 21.6093 18.3828C22.2031 18.7344 22.8359 18.9922 23.3203 19.039C23.9062 19.0937 24.4218 18.914 24.7734 18.3047L27.9062 12.8672C28.1874 12.3828 27.9843 11.9062 27.5156 11.6328C27.1562 11.4297 26.4453 11.25 25.6484 10.789C23.8203 9.73436 23.0546 7.99217 21.1328 6.8828C20.539 6.53123 19.9062 6.28905 19.414 6.22655C18.8281 6.17186 18.3281 6.35936 17.9687 6.96873L14.5703 12.8594ZM16.4374 12.539L19.2187 7.71873C19.7031 7.74998 20.2109 8.03905 20.3984 8.14842C22.1874 9.17967 22.8749 10.8828 24.9218 12.0625C25.3124 12.289 25.8515 12.5937 26.3046 12.7265L23.5156 17.5469C23.039 17.5156 22.5312 17.2344 22.3437 17.125C20.5546 16.1015 19.8671 14.3906 17.8203 13.2109C17.4296 12.9844 16.8906 12.6797 16.4374 12.539ZM13.4296 17.75L12.5859 16.289L9.67182 21.3359C9.4765 21.6797 9.59369 22.1328 9.94525 22.3359C10.2968 22.539 10.7343 22.414 10.9374 22.0625L13.4296 17.75Z" fill="#1C1C1E"/>
</g>
<defs>
<clipPath id="clip0_507_952">
<rect width="28" height="28" fill="white"/>
</clipPath>
</defs>
</svg>
