<svg width="28" height="28" viewBox="0 0 28 28" fill="none" xmlns="http://www.w3.org/2000/svg">
<path d="M8.67383 21.8721H19.3174C21.2158 21.8721 22.2002 20.8877 22.2002 19.0156V8.31934C22.2002 6.43848 21.2158 5.46289 19.3174 5.46289H8.67383C6.77539 5.46289 5.79102 6.43848 5.79102 8.31934V19.0156C5.79102 20.8965 6.77539 21.8721 8.67383 21.8721ZM10.4141 15.2891V10.4287C10.4141 10.0947 10.6777 9.83105 11.0117 9.83105C11.3369 9.83105 11.6006 10.0947 11.6006 10.4287V13.4609C11.7324 13.3906 11.8467 13.3115 12.0049 13.2412V8.8291C12.0049 8.50391 12.2773 8.24023 12.5938 8.24023C12.9277 8.24023 13.1914 8.50391 13.1914 8.8291V12.8809C13.332 12.8545 13.4727 12.8457 13.6133 12.8281V8.39844C13.6133 8.08203 13.877 7.80957 14.2109 7.80957C14.5361 7.80957 14.7998 8.08203 14.7998 8.39844V12.8809C14.9404 12.916 15.0811 12.96 15.2041 12.9951V9.12793C15.2041 8.81152 15.459 8.53906 15.793 8.53906C16.1182 8.53906 16.3818 8.80273 16.3818 9.12793V14.498C16.3818 14.6475 16.4346 14.709 16.54 14.709C16.6104 14.709 16.6807 14.665 16.7422 14.5068L17.4541 12.9863C17.6738 12.5205 17.8936 12.3096 18.2451 12.3271C18.5527 12.3447 18.7637 12.5645 18.7461 12.8721C18.7373 13.127 18.5352 13.7158 18.3857 14.1904C18.0869 15.1572 17.7617 16.1855 17.2871 16.9766C16.5664 18.3389 15.5205 18.9277 14.0088 18.9277C11.917 18.9277 10.4141 17.5391 10.4141 15.2891Z" fill="#1C1C1E"/>
</svg>
