<svg width="28" height="28" viewBox="0 0 28 28" fill="none" xmlns="http://www.w3.org/2000/svg">
<path d="M19.7393 18.9277C19.8447 18.7168 19.9414 18.4883 20.0205 18.2422C20.4424 17.1611 20.8203 16.001 21.1631 14.876C21.4268 14.041 21.7871 12.9863 21.8135 12.5205C21.8486 11.9932 21.5059 11.6152 20.9785 11.5801C20.3721 11.5361 19.9941 11.8877 19.6162 12.6787L18.3857 15.3242C18.2715 15.5879 18.1484 15.6758 18.0078 15.6758C17.8496 15.6758 17.7354 15.5879 17.7354 15.2979V6.00781C17.7354 5.43652 17.2871 4.98828 16.7158 4.98828C16.1533 4.98828 15.7051 5.43652 15.7051 6.00781V12.7666C15.4766 12.6875 15.2305 12.6172 14.9756 12.5645V4.75977C14.9756 4.18848 14.5273 3.74023 13.9561 3.74023C13.3936 3.74023 12.9453 4.18848 12.9453 4.75977V11.8789C12.8311 11.8877 12.7959 11.8877 12.7168 11.9053L19.7393 18.9277ZM10.1416 9.33887L12.1719 11.3691V5.48926C12.1719 4.92676 11.7236 4.47852 11.1611 4.47852C10.5898 4.47852 10.1416 4.92676 10.1416 5.48926V9.33887ZM19.959 22.6631C20.2402 22.9355 20.6973 22.9355 20.9521 22.6631C21.2246 22.3818 21.2158 21.9424 20.9521 21.6787L5.95801 6.69336C5.67676 6.41211 5.22852 6.4209 4.95605 6.69336C4.69238 6.95703 4.69238 7.42285 4.95605 7.68652L19.959 22.6631ZM8.11133 7.31738L9.40332 8.60059V8.23145C9.40332 7.66895 8.95508 7.2207 8.39258 7.2207C8.27832 7.2207 8.19043 7.25586 8.11133 7.31738ZM13.6045 23.0059C15.2217 23.0059 16.5225 22.6016 17.5508 21.8105L7.37305 11.624V16.7041C7.37305 20.6504 10.0273 23.0059 13.6045 23.0059Z" fill="#1C1C1E"/>
</svg>
