<svg width="28" height="28" viewBox="0 0 28 28" fill="none" xmlns="http://www.w3.org/2000/svg">
<path d="M9.66699 21.8721H18.2539C19.2031 21.8721 19.748 21.3535 19.748 20.3867V20.1406C19.7568 17.6797 17.1113 15.6934 16.0391 14.665C15.7139 14.3574 15.5381 14.0762 15.5381 13.6543C15.5381 13.2324 15.7139 12.9688 16.0391 12.6436C17.1113 11.5977 19.748 9.7168 19.748 7.17676V6.93945C19.748 5.98145 19.2031 5.46289 18.2539 5.46289H9.66699C8.74414 5.46289 8.24316 5.98145 8.24316 6.86914V7.17676C8.24316 9.7168 10.8887 11.6064 11.9521 12.6436C12.2861 12.9688 12.4531 13.2324 12.4531 13.6543C12.4531 14.0762 12.2773 14.3574 11.9521 14.665C10.8887 15.6934 8.24316 17.6797 8.24316 20.1406V20.457C8.24316 21.3535 8.74414 21.8721 9.66699 21.8721ZM10.0537 8.12598H17.9287C18.2627 8.12598 18.3242 8.38965 18.1309 8.75879C17.3574 10.165 14.7031 12.4326 13.9912 12.4326C13.2793 12.4326 10.6514 10.165 9.86035 8.75879C9.6582 8.39844 9.71973 8.12598 10.0537 8.12598Z" fill="#1C1C1E"/>
</svg>
