<svg width="28" height="28" viewBox="0 0 28 28" fill="none" xmlns="http://www.w3.org/2000/svg">
<path d="M19.3702 22.7158C22.8419 22.7158 25.6104 20 25.6104 16.6074C25.6104 14.7354 24.6788 12.8896 23.879 11.3955L20.6885 5.42773C20.3897 4.87402 19.9327 4.61035 19.3702 4.61035C18.7901 4.61035 18.3419 4.88281 18.0518 5.42773L16.461 8.38965C17.3839 8.48633 18.254 8.77637 19.0538 9.26855C19.5811 9.57617 19.6251 10.1035 19.379 10.4639C19.1592 10.7715 18.7549 10.9033 18.3594 10.6836C17.5245 10.1826 16.6983 9.91895 15.626 9.94531C14.7383 11.6064 14.5801 11.9141 14.4307 12.2041C14.8702 12.1074 15.3184 12.0547 15.8018 12.0547C16.9708 12.0547 18.0606 12.3623 19.0538 12.9688C19.5635 13.2676 19.6163 13.7861 19.3878 14.1465C19.1768 14.4629 18.7637 14.6211 18.3594 14.3838C17.5421 13.8916 16.751 13.6279 15.8018 13.6279C15.0548 13.6279 14.4571 13.7773 13.6133 14.1289C13.3673 14.8232 13.1651 15.5703 13.1299 16.3086C14.044 15.9482 14.835 15.7549 15.8018 15.7549C16.9708 15.7549 18.0606 16.0625 19.0538 16.6689C19.5635 16.9678 19.6163 17.4951 19.379 17.8555C19.168 18.1719 18.7549 18.3125 18.3594 18.084C17.5421 17.5918 16.751 17.3281 15.8018 17.3281C14.9405 17.3281 14.2901 17.5215 13.2794 17.9609C13.8946 20.6943 16.3731 22.7158 19.3702 22.7158ZM6.04596 13.25C7.76862 13.25 8.9112 12.6436 11.2491 11.5186C13.4376 10.4639 14.3428 9.98926 15.5118 9.9541C15.5557 9.94531 15.5821 9.94531 15.626 9.94531L16.461 8.38965C16.2501 8.36328 16.0303 8.35449 15.8018 8.35449C14.0616 8.35449 12.9014 8.96973 10.5635 10.0947C8.19049 11.2373 7.37311 11.6768 6.04596 11.6768C5.18463 11.6768 4.4112 11.4658 3.54108 10.9385C3.13678 10.71 2.73249 10.8506 2.52155 11.167C2.28424 11.5273 2.32819 12.0459 2.84674 12.3535C3.76081 12.8984 4.83307 13.25 6.04596 13.25ZM6.04596 16.9502C7.76862 16.9502 8.9112 16.3438 11.2491 15.2188C12.2686 14.7266 12.9981 14.3662 13.6133 14.1289C13.8331 13.4434 14.1319 12.8018 14.4307 12.2041C13.3145 12.4414 12.2423 12.9863 10.5635 13.7949C8.19049 14.9375 7.37311 15.377 6.04596 15.377C5.18463 15.377 4.4112 15.166 3.54108 14.6387C3.13678 14.4102 2.73249 14.5508 2.52155 14.8672C2.28424 15.2275 2.3194 15.7461 2.84674 16.0537C3.76081 16.6074 4.83307 16.9502 6.04596 16.9502ZM6.04596 20.6504C7.76862 20.6504 8.9112 20.0439 11.2491 18.9189C12.0928 18.5146 12.7344 18.1982 13.2794 17.9609C13.1651 17.4688 13.0948 16.7656 13.1299 16.3086C12.4005 16.5986 11.6006 16.9941 10.5635 17.4951C8.19049 18.6377 7.37311 19.0771 6.04596 19.0771C5.18463 19.0771 4.4112 18.8662 3.54108 18.3389C3.12799 18.1104 2.71491 18.2598 2.50397 18.585C2.28424 18.9541 2.33698 19.4551 2.84674 19.7539C3.76081 20.3076 4.83307 20.6504 6.04596 20.6504Z" fill="#1C1C1E"/>
</svg>
