<svg width="28" height="28" viewBox="0 0 28 28" fill="none" xmlns="http://www.w3.org/2000/svg">
<path d="M14 2.29883C9.03419 2.29883 4.80665 5.49805 3.27735 9.93652C3.84864 9.83105 4.41993 9.97168 4.84181 10.3232C6.19532 6.5791 9.78126 3.89844 14 3.89844C19.3877 3.89844 23.7647 8.2666 23.7647 13.6543C23.7647 19.0332 19.3877 23.4102 14 23.4102C9.79884 23.4102 6.20411 20.7383 4.84181 16.9941C4.42872 17.3457 3.85743 17.4951 3.28614 17.3809C4.82423 21.8193 9.04298 25.001 14 25.001C20.2666 25.001 25.3555 19.9209 25.3555 13.6543C25.3555 7.3877 20.2666 2.29883 14 2.29883ZM14 21.4502C18.3067 21.4502 21.7959 17.9521 21.7959 13.6543C21.7959 9.34766 18.3067 5.8584 14 5.8584C9.70216 5.8584 6.20411 9.34766 6.20411 13.6543C6.20411 17.9521 9.70216 21.4502 14 21.4502ZM12.418 17.5215C11.8643 17.5215 11.5654 17.1348 11.5654 16.5547V10.5166C11.5654 9.92773 11.8643 9.5498 12.418 9.5498C12.9805 9.5498 13.2881 9.91895 13.2881 10.5166V16.1328H16.2764C16.707 16.1328 17.0059 16.3877 17.0059 16.8271C17.0059 17.2578 16.7158 17.5215 16.2764 17.5215H12.418ZM3.11915 11.3604L0.69337 13.1709C0.359386 13.4258 0.368175 13.8916 0.69337 14.1377L3.11915 15.957C3.61134 16.335 4.24415 16.1328 4.24415 15.4736V11.835C4.24415 11.2021 3.62892 10.9736 3.11915 11.3604Z" fill="#1C1C1E"/>
</svg>
