<svg width="28" height="28" viewBox="0 0 28 28" fill="none" xmlns="http://www.w3.org/2000/svg">
<path d="M8.67383 21.8721H19.3174C21.2158 21.8721 22.2002 20.8877 22.2002 19.0156V8.31934C22.2002 6.43848 21.2158 5.46289 19.3174 5.46289H8.67383C6.77539 5.46289 5.79102 6.43848 5.79102 8.31934V19.0156C5.79102 20.8965 6.77539 21.8721 8.67383 21.8721ZM9.33301 14.4014C8.51562 14.4014 8.34863 13.4785 9.04297 13.1621L17.3135 9.25977C18.0693 8.9082 18.7285 9.56738 18.3857 10.3232L14.5186 18.6025C14.2021 19.2881 13.2793 19.1475 13.2793 18.3037V14.709C13.2793 14.5244 13.1475 14.4014 12.9805 14.4014H9.33301Z" fill="#1C1C1E"/>
</svg>
