<svg width="28" height="28" viewBox="0 0 28 28" fill="none" xmlns="http://www.w3.org/2000/svg">
<path d="M11.2402 5.04112L18.6934 6.35948C19.4844 6.50011 20.1436 6.71983 20.6885 7.01866L20.6797 6.43858C20.6445 4.53136 19.3174 3.6173 17.1465 4.00401L11.2402 5.04112ZM8.56836 22.0655L18.2627 23.7706C20.0996 24.0958 21.2334 23.0499 21.2334 21.046V10.4376C21.2334 8.60069 20.3369 7.88878 18.4736 7.56358L9.07812 5.90245C7.69824 5.66515 6.75781 6.44737 6.75781 7.81847V19.965C6.75781 21.1427 7.38184 21.8546 8.56836 22.0655ZM10.3174 11.1495C9.97461 11.0968 9.78125 10.8331 9.78125 10.4816C9.78125 10.0597 10.1152 9.77843 10.5811 9.85753L17.3398 11.0441C17.7002 11.1144 17.8936 11.3253 17.8936 11.712C17.8936 12.1339 17.5859 12.4239 17.1201 12.3536L10.3174 11.1495ZM10.3174 14.753C9.9834 14.6915 9.78125 14.4366 9.78125 14.0851C9.78125 13.672 10.1152 13.3907 10.5811 13.4698L17.3398 14.6564C17.7002 14.7267 17.8936 14.9376 17.8936 15.3067C17.8936 15.7462 17.5859 16.0362 17.1201 15.9659L10.3174 14.753Z" fill="#1C1C1E"/>
</svg>
