<svg width="28" height="28" viewBox="0 0 28 28" fill="none" xmlns="http://www.w3.org/2000/svg">
<path d="M13.9912 22.751C18.9746 22.751 23.0879 18.6377 23.0879 13.6543C23.0879 10.8154 21.6729 8.12595 19.5459 6.52635C19.0713 6.13963 18.4912 6.20994 18.2012 6.62302C17.8848 7.05369 18.0254 7.57224 18.4297 7.9326C20.1611 9.25974 21.2598 11.3076 21.2686 13.6543C21.2773 17.6885 18.0254 20.9316 13.9912 20.9316C9.95703 20.9316 6.73145 17.6885 6.73145 13.6543C6.73145 10.2441 9.03418 7.40525 12.1807 6.60545V7.87986C12.1807 8.55662 12.6816 8.74119 13.2266 8.34568L16.1973 6.2451C16.6367 5.9199 16.6455 5.42771 16.1973 5.11131L13.2354 3.00193C12.6816 2.60642 12.1807 2.7822 12.1807 3.46775V4.75095C8.0498 5.60349 4.90332 9.2949 4.90332 13.6543C4.90332 18.6377 9.0166 22.751 13.9912 22.751ZM12.1631 17.3896C12.5586 17.3896 12.7959 17.1172 12.7959 16.6513V16.0097H13.1475C13.4727 16.0097 13.6748 15.79 13.6748 15.4472C13.6748 15.1133 13.4639 14.8935 13.1475 14.8935H12.7783V11.3252C12.7783 10.7011 12.3916 10.4023 11.7852 10.4023C11.2666 10.4023 10.9414 10.5957 10.6777 11.0879C10.0801 12.1074 9.36816 13.3818 8.80566 14.4277C8.65625 14.7265 8.59473 14.9287 8.59473 15.2451C8.59473 15.7021 8.90234 16.0097 9.41211 16.0097H11.5479V16.6513C11.5479 17.1172 11.7764 17.3896 12.1631 17.3896ZM16.6016 17.4248C18.0781 17.4248 19.0537 16.4756 19.0537 15.0166C19.0537 13.707 18.166 12.8105 16.9619 12.8105C16.4258 12.8105 15.8721 13.0654 15.6172 13.4785L15.7666 11.6328H18.2891C18.5967 11.6328 18.8428 11.3867 18.8428 11.0527C18.8428 10.7187 18.5967 10.499 18.2891 10.499H15.4941C15.002 10.499 14.7295 10.789 14.6943 11.2988L14.5186 13.8037C14.4834 14.2783 14.7383 14.5156 15.1602 14.5156C15.4766 14.5156 15.5996 14.4541 15.8369 14.2695C16.1533 13.997 16.3994 13.874 16.7422 13.874C17.3926 13.874 17.8145 14.3486 17.8145 15.0429C17.8145 15.7636 17.3135 16.291 16.6455 16.291C16.1445 16.291 15.749 16.0097 15.5117 15.5879C15.3799 15.3769 15.2217 15.2539 14.9844 15.2539C14.6592 15.2539 14.4307 15.4824 14.4307 15.8164C14.4307 15.9482 14.4482 16.0713 14.5098 16.2031C14.7471 16.8095 15.5205 17.4248 16.6016 17.4248ZM9.87793 14.8935V14.8672C10.4404 13.7597 10.9854 12.6611 11.5479 11.5537H11.583V14.8935H9.87793Z" fill="#1C1C1E"/>
</svg>
