<svg width="28" height="28" viewBox="0 0 28 28" fill="none" xmlns="http://www.w3.org/2000/svg">
<path d="M21.1719 4.92676C20.7236 5.25195 15.8545 8.57422 12.8222 11.2549C14.8965 11.9316 16.5137 13.54 17.1904 15.6318C19.8799 12.5908 23.2021 7.73047 23.5273 7.27344C24.6347 5.7002 22.7012 3.81055 21.1719 4.92676ZM12.8135 15.6318C13.4902 16.3086 13.9824 17.1875 14.1318 17.9522C14.7998 17.8291 15.3535 17.5215 15.916 16.9766C16.0127 16.8887 16.1006 16.8008 16.1885 16.7041C15.8369 14.4805 13.956 12.5996 11.75 12.2568C11.6533 12.3359 11.5566 12.4326 11.4687 12.5293C10.9238 13.0918 10.6074 13.6631 10.5019 14.3311C11.249 14.4629 12.1367 14.9463 12.8135 15.6318ZM4.46385 20.7998C6.07224 22.9268 9.41209 23.5596 11.5127 21.9688C13.2969 20.6328 13.6045 18.6025 12.3213 16.9063C11.1611 15.3682 9.17478 14.9902 7.85642 16.0098C6.45017 17.0732 7.01267 18.4355 6.1865 19.0508C5.47459 19.5957 4.87693 19.2441 4.4199 19.5869C4.05955 19.8594 4.06834 20.2988 4.46385 20.7998Z" fill="#1C1C1E"/>
</svg>
