<svg width="28" height="28" viewBox="0 0 28 28" fill="none" xmlns="http://www.w3.org/2000/svg">
<path d="M14 2.29883C9.03419 2.29883 4.80665 5.49805 3.27735 9.93652C3.84864 9.83105 4.41993 9.97168 4.84181 10.3232C6.19532 6.5791 9.78126 3.89844 14 3.89844C19.3877 3.89844 23.7647 8.2666 23.7647 13.6543C23.7647 19.0332 19.3877 23.4102 14 23.4102C9.79884 23.4102 6.20411 20.7383 4.84181 16.9941C4.42872 17.3457 3.85743 17.4951 3.28614 17.3809C4.82423 21.8193 9.04298 25.001 14 25.001C20.2666 25.001 25.3555 19.9209 25.3555 13.6543C25.3555 7.3877 20.2666 2.29883 14 2.29883ZM14 21.4502C18.3067 21.4502 21.7959 17.9521 21.7959 13.6543C21.7959 9.34766 18.3067 5.8584 14 5.8584C9.70216 5.8584 6.20411 9.34766 6.20411 13.6543C6.20411 17.9521 9.70216 21.4502 14 21.4502ZM11.75 17.6357C11.2402 17.6357 10.959 17.2842 10.959 16.7393V10.6133C10.959 10.0332 11.249 9.66406 11.8115 9.66406H14.2549C16.0742 9.66406 17.1904 10.6396 17.1904 12.2217C17.1904 13.2939 16.5488 14.1816 15.5557 14.5068L16.7686 16.3789C16.8916 16.5723 16.9443 16.7305 16.9443 16.9414C16.9443 17.3545 16.6367 17.6357 16.2061 17.6357C15.8457 17.6357 15.6524 17.4863 15.3975 17.082L13.9824 14.7705H12.5586V16.7393C12.5586 17.293 12.2686 17.6357 11.75 17.6357ZM12.5586 13.5928H14.0264C14.958 13.5928 15.5557 13.1094 15.5557 12.2568C15.5557 11.3867 14.9492 10.8857 14.0527 10.8857H12.5586V13.5928ZM3.11915 11.3604L0.69337 13.1709C0.359386 13.4258 0.368175 13.8916 0.69337 14.1377L3.11915 15.957C3.61134 16.335 4.24415 16.1328 4.24415 15.4736V11.835C4.24415 11.2021 3.62892 10.9736 3.11915 11.3604Z" fill="#1C1C1E"/>
</svg>
