<svg width="28" height="28" viewBox="0 0 28 28" fill="none" xmlns="http://www.w3.org/2000/svg">
<path d="M9.52637 23.5068C9.88672 23.5068 10.168 23.3311 10.5986 22.9268L13.833 20.0088H19.5986C22.2441 20.0176 23.7295 18.4971 23.7295 15.8867V9.06641C23.7295 6.45605 22.2441 4.94434 19.5986 4.94434H8.39258C5.74707 4.94434 4.26172 6.45605 4.26172 9.06641V15.8867C4.26172 18.4971 5.78223 20.0088 8.33105 20.0088H8.68262V22.5576C8.68262 23.1289 8.99902 23.5068 9.52637 23.5068ZM9.35059 10.0771C9.03418 10.0771 8.78809 9.81348 8.78809 9.49707C8.78809 9.18945 9.03418 8.93457 9.35059 8.93457H18.5527C18.8691 8.93457 19.124 9.18945 19.124 9.49707C19.124 9.81348 18.8691 10.0771 18.5527 10.0771H9.35059ZM9.35059 12.9775C9.03418 12.9775 8.78809 12.7227 8.78809 12.4062C8.78809 12.0986 9.03418 11.835 9.35059 11.835H18.5527C18.8691 11.835 19.124 12.0986 19.124 12.4062C19.124 12.7227 18.8691 12.9775 18.5527 12.9775H9.35059ZM9.35059 15.8867C9.03418 15.8867 8.78809 15.6318 8.78809 15.3242C8.78809 14.999 9.03418 14.7441 9.35059 14.7441H15.3447C15.6611 14.7441 15.916 14.999 15.916 15.3242C15.916 15.6318 15.6611 15.8867 15.3447 15.8867H9.35059Z" fill="#1C1C1E"/>
</svg>
