<svg width="28" height="28" viewBox="0 0 28 28" fill="none" xmlns="http://www.w3.org/2000/svg">
<path d="M24.8721 13.6103C24.8721 13.1181 24.5381 12.7754 24.0107 12.7754H21.5059V8.35448C21.5059 6.56151 20.3281 5.59471 18.5 5.90233L9.20117 7.46678C7.45215 7.75682 6.48535 8.67967 6.48535 10.2002V12.7754H21.5059V14.4365H24.0107C24.5381 14.4365 24.8721 14.0849 24.8721 13.6103ZM3.98926 14.4365H6.48535V17.0117C6.48535 18.5234 7.45215 19.4551 9.20117 19.7451L18.5 21.3096C20.3281 21.6084 21.5059 20.6504 21.5059 18.8574V14.4365H6.48535V12.7754H3.98926C3.46191 12.7754 3.12793 13.1181 3.12793 13.6103C3.12793 14.0849 3.46191 14.4365 3.98926 14.4365Z" fill="#1C1C1E"/>
</svg>
