<svg width="28" height="28" viewBox="0 0 28 28" fill="none" xmlns="http://www.w3.org/2000/svg">
<path d="M9.52637 23.4101H18.4736C20.1611 23.4101 21.0225 22.5664 21.04 20.8877L21.1543 12.4589L23.0967 12.8984C24.0459 13.1005 24.6611 12.7226 24.8809 11.791L25.6367 8.64449C25.8564 7.72164 25.4961 7.04488 24.6084 6.66695L18.4824 4.07418C18.0869 3.8984 17.7354 3.90719 17.3662 4.08297C16.1797 4.63668 15.2832 4.90035 14 4.90035C12.7168 4.90035 11.8203 4.63668 10.6338 4.08297C10.2646 3.90719 9.91309 3.8984 9.51758 4.07418L3.40039 6.66695C2.5127 7.04488 2.14356 7.72164 2.36328 8.64449L3.12793 11.791C3.33887 12.7226 3.96289 13.1005 4.90332 12.8984L6.8457 12.4589L6.95996 20.8877C6.97754 22.5664 7.83887 23.4101 9.52637 23.4101ZM14 7.80953C12.585 7.80953 11.5303 7.06246 11.0996 5.89351C11.9873 6.20992 12.9893 6.3857 14 6.3857C15.0107 6.3857 16.0127 6.20992 16.9004 5.89351C16.4785 7.05367 15.4414 7.80953 14 7.80953Z" fill="#1C1C1E"/>
</svg>
