<svg width="28" height="28" viewBox="0 0 28 28" fill="none" xmlns="http://www.w3.org/2000/svg">
<path d="M8.67383 21.8721H19.3174C21.2158 21.8721 22.2002 20.8877 22.2002 19.0156V8.31934C22.2002 6.43848 21.2158 5.46289 19.3174 5.46289H8.67383C6.77539 5.46289 5.79102 6.43848 5.79102 8.31934V19.0156C5.79102 20.8965 6.77539 21.8721 8.67383 21.8721ZM10.3438 17.2578C9.4209 17.2578 8.87598 16.748 8.87598 15.8428V11.501C8.87598 10.5869 9.44727 10.0596 10.3438 10.0596H15.002C15.9424 10.0596 16.4346 10.5869 16.4346 11.501V15.8252C16.4346 16.7305 15.8984 17.2578 14.9668 17.2578H10.3438ZM16.9531 14.9639V12.3799L18.5879 10.9736C18.7637 10.833 18.957 10.7363 19.1328 10.7363C19.4844 10.7363 19.7217 10.9824 19.7217 11.3604V15.9658C19.7217 16.3525 19.4844 16.5986 19.1328 16.5986C18.957 16.5986 18.7725 16.502 18.5879 16.3613L16.9531 14.9639Z" fill="#1C1C1E"/>
</svg>
